<svg width="51" height="52" viewBox="0 0 51 52" fill="none" xmlns="http://www.w3.org/2000/svg">
<path d="M42.1033 23.4344C42.1033 23.4344 42.1533 23.4344 42.1733 23.4344C42.1533 23.4244 42.1433 23.4044 42.1233 23.3944C42.1233 23.4144 42.1133 23.4244 42.1033 23.4444V23.4344Z" fill="#6B4E45"/>
<path d="M30.0733 6.37439C29.4933 5.44439 28.6333 4.90439 27.5233 4.97439C26.9833 5.00439 26.4833 5.15439 26.0433 5.40439C26.0833 5.19439 26.1533 4.98439 26.2633 4.79439C26.6433 4.09439 27.2133 3.90439 27.9633 4.07439C28.2133 4.13439 28.5333 4.07439 28.7633 3.96439C28.8433 3.93439 29.1733 3.76439 28.9233 3.70439C27.9633 3.48439 26.8733 3.57439 26.0033 4.08439C25.8133 4.19439 25.6533 4.31439 25.5133 4.46439C25.3633 4.26439 25.1833 4.09439 24.9433 3.95439C24.1733 3.48439 23.2033 3.54439 22.3533 3.73439C22.2733 3.75439 21.7633 3.86439 21.8133 4.01439C21.8633 4.17439 22.3233 4.07439 22.4233 4.05439C23.5033 3.81439 24.2933 4.37439 24.6733 5.18439C24.2733 5.01439 23.8233 4.94439 23.3333 4.99439C23.0633 5.02439 22.8033 5.07439 22.5633 5.16439C22.4733 5.26439 22.4133 5.33439 22.3333 5.41439C22.2733 5.39439 22.2033 5.36439 22.1333 5.33439C21.5833 5.60439 21.1133 6.01439 20.7533 6.57439C20.6533 6.74439 21.1533 6.69439 21.1933 6.68439C21.3833 6.66439 21.7633 6.60439 21.8733 6.42439C22.2133 5.89439 22.7233 5.24439 23.4233 5.43439C23.8933 5.56439 24.2833 5.87439 24.5933 6.23439C23.9933 6.29439 23.4033 6.46439 22.9033 6.80439C22.4333 7.12439 22.1533 7.56439 22.0233 8.05439C22.0833 8.10439 22.1133 8.18439 22.1133 8.27439C22.1133 8.40439 22.0433 8.47439 21.9533 8.49439C21.9233 8.84439 21.9533 9.20439 22.0233 9.55439C22.0833 9.78439 23.2233 9.54439 23.1733 9.31439C22.8933 8.09439 23.3233 6.44439 24.8633 6.65439V7.01439C24.8633 7.01439 24.8633 7.01439 24.8533 7.01439C24.7933 7.03439 24.7233 7.05439 24.6633 7.09439C24.6033 7.13439 24.5633 7.19439 24.5333 7.26439C24.4333 7.46439 24.3833 7.69439 24.4033 7.92439C24.4133 8.15439 24.4933 8.38439 24.6333 8.56439C24.6933 8.64439 24.7833 8.72439 24.8733 8.78439V10.4044C24.8733 10.5744 25.9533 10.5244 25.9533 10.2344V8.75439C26.0133 8.72439 26.0633 8.69439 26.1133 8.65439C26.3433 8.46439 26.4833 8.14439 26.4433 7.84439C26.4333 7.74439 26.3933 7.66439 26.3533 7.57439C26.3533 7.63439 26.3133 7.70439 26.2433 7.76439C26.0833 7.68439 25.9333 7.59439 25.9833 7.38439C25.9933 7.32439 26.0433 7.23439 26.0933 7.22439C26.0933 7.22439 26.1133 7.22439 26.1233 7.22439C26.0733 7.17439 26.0333 7.13439 25.9733 7.08439C25.9733 7.08439 25.9533 7.06439 25.9433 7.05439V6.68439C25.9433 6.68439 26.0033 6.63439 26.0233 6.61439C27.3533 6.78439 27.9633 8.16439 27.6533 9.52439C27.6333 9.61439 28.7233 9.60439 28.8033 9.28439C28.9033 8.84439 28.9233 8.39439 28.8433 7.97439C28.8133 7.98439 28.7733 8.00439 28.7433 8.02439C28.7433 7.99439 28.7233 7.96439 28.7133 7.92439C28.7533 7.92439 28.7933 7.91439 28.8333 7.90439C28.7333 7.47439 28.5233 7.08439 28.1733 6.76439C27.5933 6.25439 26.8133 6.14439 26.0733 6.19439C26.4633 5.66439 26.9633 5.19439 27.6733 5.46439C28.2233 5.67439 28.6333 6.11439 28.9433 6.60439C29.1133 6.87439 30.1633 6.46439 30.0933 6.36439L30.0733 6.37439ZM24.7233 4.39439C24.7233 4.39439 24.6733 4.35439 24.6433 4.33439C24.6733 4.29439 24.7133 4.25439 24.7433 4.20439C24.7633 4.22439 24.7933 4.23439 24.8133 4.25439C24.7833 4.29439 24.7533 4.34439 24.7133 4.38439L24.7233 4.39439ZM25.7633 6.88439C25.6933 6.88439 25.6133 6.87439 25.5433 6.86439C25.5433 6.83439 25.5433 6.80439 25.5433 6.77439C25.6033 6.73439 25.6533 6.69439 25.7633 6.62439V6.88439Z" fill="#6B4E45"/>
<path d="M28.9233 44.8344C28.6133 45.3244 28.2033 45.7644 27.6533 45.9744C26.9533 46.2444 26.4533 45.7644 26.0533 45.2444C26.7933 45.2944 27.5733 45.1844 28.1533 44.6744C28.8833 44.0344 28.9933 43.0644 28.7933 42.1544C28.7133 41.8244 27.6233 41.8244 27.6433 41.9144C27.9533 43.2744 27.3333 44.6444 26.0133 44.8244C25.9933 44.8044 25.9633 44.7744 25.9333 44.7544V44.3844C25.9333 44.3844 25.9533 44.3644 25.9633 44.3544C26.1933 44.1644 26.3833 43.9044 26.4233 43.6144C26.4633 43.3144 26.3233 43.0044 26.0933 42.8044C26.0433 42.7644 25.9933 42.7344 25.9333 42.7044V41.2244C25.9333 40.9344 24.8533 40.8744 24.8533 41.0544V42.6744C24.7633 42.7344 24.6833 42.8044 24.6133 42.8944C24.4733 43.0744 24.4033 43.3044 24.3833 43.5344C24.3733 43.7644 24.4133 43.9944 24.5133 44.1944C24.5433 44.2544 24.5933 44.3244 24.6433 44.3644C24.7033 44.4044 24.7633 44.4244 24.8333 44.4444C24.8333 44.4444 24.8333 44.4444 24.8433 44.4444V44.8044C23.3033 45.0144 22.8833 43.3544 23.1533 42.1444C23.2033 41.9144 22.0633 41.6644 22.0033 41.9044C21.7733 42.9344 21.9733 44.0244 22.8933 44.6544C23.3933 44.9944 23.9833 45.1644 24.5833 45.2244C24.2733 45.5944 23.8833 45.8944 23.4133 46.0244C22.7133 46.2144 22.1933 45.5544 21.8633 45.0344C21.7533 44.8544 21.3733 44.7944 21.1833 44.7744C21.1333 44.7744 20.6433 44.7244 20.7433 44.8844C21.3333 45.8144 22.2333 46.3544 23.3233 46.4644C23.8133 46.5244 24.2633 46.4444 24.6633 46.2744C24.2833 47.0844 23.4833 47.6444 22.4133 47.4044C22.3233 47.3844 21.8633 47.2844 21.8033 47.4444C21.7533 47.5944 22.2633 47.7044 22.3433 47.7244C23.1933 47.9144 24.1533 47.9744 24.9333 47.5044C25.1633 47.3644 25.3533 47.1944 25.5033 46.9944C25.6433 47.1344 25.8033 47.2644 25.9933 47.3744C26.8633 47.8844 27.9433 47.9644 28.9133 47.7544C29.1633 47.6944 28.8333 47.5244 28.7533 47.4944C28.5233 47.3944 28.2033 47.3244 27.9533 47.3844C27.2033 47.5544 26.6233 47.3544 26.2533 46.6644C26.1433 46.4744 26.0833 46.2644 26.0333 46.0544C26.4733 46.3044 26.9833 46.4444 27.5133 46.4844C28.6233 46.5644 29.4833 46.0144 30.0633 45.0844C30.1333 44.9744 29.0933 44.5744 28.9133 44.8444L28.9233 44.8344ZM25.8833 45.1044C25.7567 45.0044 25.7567 44.8911 25.8833 44.7644V45.1044Z" fill="#6B4E45"/>
<path d="M47.4133 28.2043C47.4733 28.1843 47.5233 28.1543 47.5633 28.1143C47.5433 27.4843 47.3933 26.8543 47.0733 26.3143C46.9633 26.1243 46.8333 25.9643 46.6933 25.8343C46.8833 25.6843 47.0633 25.5043 47.2033 25.2643C47.6733 24.4943 47.6033 23.5243 47.4233 22.6743C47.4033 22.5943 47.2933 22.0843 47.1433 22.1343C46.9833 22.1943 47.0834 22.6543 47.1034 22.7443C47.3434 23.8243 46.7833 24.6143 45.9733 24.9943C46.1433 24.5943 46.2133 24.1443 46.1633 23.6543C46.0833 22.9643 45.8433 22.3443 45.4433 21.8443C45.2533 21.7143 45.0934 21.5443 44.9634 21.3643C44.8434 21.2643 44.7133 21.1743 44.5833 21.0843C44.4133 20.9843 44.4633 21.4743 44.4733 21.5243C44.4933 21.7143 44.5533 22.0843 44.7333 22.2043C45.2633 22.5343 45.9233 23.0543 45.7233 23.7543C45.5933 24.2243 45.2833 24.6143 44.9233 24.9243C44.8633 24.3243 44.6934 23.7343 44.3534 23.2343C43.8834 22.5443 43.1633 22.2643 42.4033 22.2643C42.2333 22.3043 42.0633 22.3243 41.8633 22.3243C41.8333 22.3243 41.8033 22.3243 41.7733 22.3243C41.7133 22.3243 41.6634 22.3343 41.6034 22.3543C41.4034 22.4043 41.5633 23.2843 41.7633 23.4643C41.7633 23.4443 41.7833 23.4243 41.7933 23.4143C42.0233 23.3443 42.0433 23.1343 42.1233 22.9643C42.2033 23.0043 42.1534 23.2243 42.3534 23.0943C42.3934 23.0643 42.5233 23.1743 42.6133 23.2243H42.6233C42.6233 23.2243 42.6233 23.2243 42.6133 23.2243C42.5733 23.2843 42.5333 23.3543 42.5033 23.4243C43.5833 23.4043 44.6933 23.9143 44.5133 25.1943H44.1533C44.1533 25.1943 44.1533 25.1843 44.1533 25.1743C44.1333 25.1143 44.1133 25.0443 44.0733 24.9943C44.0333 24.9343 43.9733 24.8943 43.9033 24.8643C43.7033 24.7543 43.4733 24.7143 43.2433 24.7343C43.0133 24.7443 42.7834 24.8143 42.6034 24.9543C42.5234 25.0243 42.4433 25.1043 42.3833 25.1943H40.7533C40.5833 25.1943 40.6333 26.2743 40.9233 26.2743H42.4033C42.4333 26.3343 42.4633 26.3843 42.5033 26.4343C42.6933 26.6743 43.0033 26.8143 43.3133 26.7743C43.6033 26.7343 43.8633 26.5343 44.0533 26.3143C44.0633 26.3143 44.0733 26.2943 44.0833 26.2843H44.4533C44.4533 26.2843 44.4933 26.3543 44.5233 26.3643C44.3533 27.6943 42.9633 28.3043 41.6133 28.0043C41.5233 27.9843 41.5334 29.0743 41.8534 29.1543C41.9634 29.1843 42.0833 29.2043 42.1933 29.2143C42.2233 29.2143 42.2533 29.2143 42.2833 29.2143C42.4133 29.2143 42.5233 29.2243 42.6433 29.2443C43.2933 29.2443 43.9133 29.0443 44.3733 28.5243C44.8833 27.9443 44.9933 27.1643 44.9333 26.4143C45.4633 26.8043 45.9333 27.3043 45.6633 28.0143C45.4533 28.5643 45.0133 28.9743 44.5333 29.2843C44.2633 29.4543 44.6733 30.4943 44.7733 30.4343C44.8933 30.3543 45.0133 30.2743 45.1133 30.1843C45.2333 30.0243 45.3733 29.8843 45.5433 29.7643C45.9833 29.2543 46.2133 28.6243 46.1633 27.8743C46.1333 27.3343 45.9833 26.8343 45.7333 26.3943C45.9433 26.4343 46.1433 26.5043 46.3433 26.6143C47.0433 26.9943 47.2333 27.5643 47.0633 28.3143C47.0133 28.5643 47.0633 28.8843 47.1733 29.1143C47.2133 29.1943 47.3833 29.5243 47.4333 29.2743C47.4533 29.1943 47.4633 29.1143 47.4733 29.0443C47.4733 29.0443 47.4533 29.0543 47.4433 29.0643C47.4033 28.7943 47.3734 28.6143 47.3534 28.4243C47.3534 28.3643 47.3733 28.2643 47.4033 28.2543L47.4133 28.2043ZM46.7433 24.9043C46.8133 24.7943 46.8933 24.6843 47.0233 24.8843C46.9233 24.8843 46.8333 24.8943 46.7433 24.9043C46.7433 24.9043 46.7433 24.9043 46.7433 24.9143H46.7333L46.7533 24.9043H46.7433Z" fill="#6B4E45"/>
<path d="M10.0933 25.1743H8.46333C8.40333 25.0843 8.33333 25.0043 8.24333 24.9343C8.06333 24.7943 7.83333 24.7243 7.60333 24.7143C7.37333 24.6943 7.14333 24.7343 6.94333 24.8443C6.88333 24.8743 6.81333 24.9243 6.77333 24.9743C6.73333 25.0343 6.71333 25.0943 6.68333 25.1543C6.68333 25.1543 6.68333 25.1643 6.68333 25.1743H6.32333C6.32333 25.1743 6.32333 25.1443 6.32333 25.1243C6.26333 25.1043 6.18333 25.0743 6.18333 25.0743C6.20333 24.9843 6.23333 24.8943 6.26333 24.8043C6.28333 24.8043 6.29333 24.8043 6.31333 24.8143C6.38333 23.5643 7.87333 23.2243 8.98333 23.4743C9.21333 23.5243 9.46333 22.3843 9.22333 22.3243C8.19333 22.0943 7.10333 22.2943 6.48333 23.2143C6.14333 23.7143 5.97333 24.3043 5.91333 24.9043C5.55333 24.5943 5.24333 24.2043 5.11333 23.7343C4.92333 23.0343 5.58333 22.5143 6.10333 22.1843C6.28333 22.0643 6.34333 21.6943 6.36333 21.5043C6.36333 21.4543 6.41333 20.9543 6.25333 21.0643C5.32333 21.6543 4.78333 22.5443 4.66333 23.6443C4.61333 24.1343 4.68333 24.5843 4.85333 24.9843C4.04333 24.6043 3.48333 23.8043 3.72333 22.7343C3.74333 22.6443 3.84333 22.1843 3.68333 22.1243C3.53333 22.0743 3.42333 22.5843 3.40333 22.6643C3.21333 23.5143 3.15333 24.4743 3.62333 25.2543C3.76333 25.4843 3.93333 25.6743 4.13333 25.8243C3.99333 25.9643 3.86333 26.1243 3.75333 26.3043C3.58333 26.5943 3.46333 26.9143 3.38333 27.2443C3.41333 27.2443 3.45333 27.2443 3.47333 27.2643C3.50333 27.2843 3.47333 27.4143 3.47333 27.5543C3.41333 27.5143 3.37333 27.4843 3.33333 27.4543C3.22333 28.0343 3.24333 28.6443 3.37333 29.2143C3.43333 29.4643 3.60333 29.1343 3.63333 29.0543C3.73333 28.8243 3.79333 28.5043 3.74333 28.2543C3.57333 27.5043 3.77333 26.9343 4.46333 26.5543C4.66333 26.4443 4.86333 26.3743 5.07333 26.3343C4.94333 26.5643 4.84333 26.8143 4.77333 27.0743C4.83333 27.0943 4.85333 27.1443 4.86333 27.2243C4.81333 27.2543 4.76333 27.2543 4.73333 27.2443C4.69333 27.4243 4.65333 27.6143 4.64333 27.8143C4.56333 28.9243 5.11333 29.7843 6.04333 30.3643C6.15333 30.4343 6.55333 29.3943 6.28333 29.2143C6.04333 29.0643 5.82333 28.8843 5.62333 28.6843C5.61333 28.7143 5.60333 28.7443 5.58333 28.7743C5.55333 28.7443 5.51333 28.7243 5.50333 28.6943C5.50333 28.6243 5.50333 28.5943 5.53333 28.5743C5.37333 28.3843 5.23333 28.1743 5.14333 27.9443C4.87333 27.2343 5.34333 26.7343 5.87333 26.3443C5.84333 26.8043 5.87333 27.2743 6.01333 27.7043C6.02333 27.6843 6.06333 27.6443 6.07333 27.6543C6.10333 27.6643 6.14333 27.7043 6.16333 27.7343C6.16333 27.7343 6.13333 27.7843 6.07333 27.8543C6.15333 28.0743 6.27333 28.2743 6.43333 28.4543C7.07333 29.1843 8.05333 29.2943 8.95333 29.0843C9.28333 29.0143 9.29333 27.9143 9.19333 27.9343C7.84333 28.2443 6.46333 27.6243 6.28333 26.2943C6.31333 26.2743 6.33333 26.2443 6.35333 26.2143H6.72333C6.72333 26.2143 6.74333 26.2343 6.75333 26.2443C6.94333 26.4743 7.20333 26.6643 7.49333 26.7043C7.79333 26.7443 8.10333 26.6043 8.30333 26.3643C8.34333 26.3143 8.37333 26.2643 8.40333 26.2043H9.88334C10.1733 26.2043 10.2333 25.1243 10.0533 25.1243L10.0933 25.1743ZM4.61333 26.0243C4.72333 25.9543 4.81333 25.9043 4.92333 25.8443C4.97333 25.9043 5.02333 25.9643 5.09333 26.0543C4.90333 26.0443 4.77333 26.0343 4.60333 26.0243H4.61333ZM9.18333 28.0843C9.21333 28.1443 9.24333 28.1743 9.25333 28.2143C9.25333 28.2143 9.20333 28.2643 9.18333 28.2643C9.15333 28.2643 9.12333 28.2243 9.11333 28.1943C9.11333 28.1643 9.14333 28.1343 9.18333 28.0943V28.0843Z" fill="#6B4E45"/>
<path d="M14.9733 11.1844C14.9733 11.1844 14.9433 11.1544 14.9333 11.1444C14.8733 11.0944 14.8233 11.0444 14.7733 10.9844C14.7733 10.9844 14.7633 10.9844 14.7533 10.9844C14.6533 10.9344 14.5633 10.8444 14.4833 10.7844C14.3533 10.6844 14.2433 10.6144 14.1533 10.4944C14.0733 10.4144 14.0133 10.3344 13.9433 10.2544C13.5533 9.94443 13.1733 9.71443 12.8133 9.60443C12.3033 9.45443 11.8133 9.45443 11.2733 9.45443H11.2133C11.0033 9.45443 10.8433 9.45443 10.6833 9.43443C10.5133 9.43443 10.3533 9.41443 10.1433 9.41443C10.1033 9.41443 10.0633 9.41443 10.0333 9.41443C9.99334 9.41443 9.95334 9.41443 9.92334 9.41443C9.84334 9.41443 9.78334 9.41443 9.73334 9.43443C9.54334 9.48443 9.43334 9.59443 9.31334 9.72443C9.26334 9.77443 9.19334 9.85443 9.14334 9.91443C9.24334 9.96443 9.32334 10.0644 9.38334 10.2044C9.38334 10.2044 9.39334 10.1944 9.40334 10.1844C9.42334 10.2044 9.44334 10.2344 9.45334 10.2644C9.45334 10.2744 9.43334 10.3044 9.42334 10.3044C9.45334 10.4144 9.48334 10.5244 9.50334 10.6744C9.34334 10.7444 9.20334 10.7844 9.08334 10.8044V11.5344C9.08334 12.0844 9.13334 12.6744 9.38334 13.2344C9.59334 13.7044 9.91333 14.0744 10.3233 14.4844H10.3333C10.3333 14.4844 10.3333 14.5044 10.3433 14.5144C10.3833 14.5544 10.5633 14.7344 10.7933 14.9644C10.9633 15.0844 11.1033 15.2244 11.2133 15.3744C11.6033 15.7544 11.9933 16.1444 12.0533 16.2044C12.2633 16.4144 12.9233 15.5544 12.8033 15.4344C12.6533 15.2844 12.1133 14.6644 11.9733 14.5244C11.4633 14.0244 10.3633 12.8544 10.1833 12.3144C10.0333 11.8544 10.0133 11.3844 10.0133 10.9844V10.5044C10.0133 10.3244 10.0133 10.1844 10.0033 10.0544H10.0133L10.5433 10.0344C11.1033 10.0344 11.7133 10.0644 12.2933 10.3244C12.7933 10.5444 13.1933 10.9044 13.5333 11.2444L14.2533 11.8644C14.4633 12.0744 15.1333 11.3044 15.0133 11.1944L14.9733 11.1844ZM14.2933 11.2844C14.2933 11.2844 14.2933 11.2244 14.2833 11.2044H14.8333C14.8333 11.2044 14.8333 11.2644 14.8333 11.2844H14.2933Z" fill="#6B4E45"/>
<path d="M9.05334 41.2544C9.05334 41.3344 9.05333 41.3944 9.07333 41.4444C9.12333 41.6344 9.23333 41.7444 9.36333 41.8644C9.42333 41.9244 9.52333 42.0144 9.59333 42.0644C9.60333 42.0744 9.62334 42.0844 9.62334 42.0844L9.65333 42.1044H11.1733C11.7233 42.1044 12.3133 42.0544 12.8733 41.8044C13.3433 41.5944 13.7133 41.2744 14.1233 40.8644H14.1333C14.1333 40.8644 14.1333 40.8444 14.1433 40.8344C14.2733 40.7044 15.7033 39.2544 15.8333 39.1244C16.0433 38.9144 15.1833 38.2544 15.0633 38.3744C14.9133 38.5244 14.2933 39.0644 14.1533 39.2044C13.6533 39.7144 12.4833 40.8144 11.9433 40.9944C11.4833 41.1444 11.0133 41.1644 10.6133 41.1644H10.1333C9.95334 41.1644 9.81333 41.1644 9.68333 41.1744H9.67333V40.9044C9.67333 40.9044 9.65333 40.9044 9.64333 40.9044V40.8444H9.67333V40.6444C9.67333 40.0844 9.70334 39.4744 9.96334 38.8944C10.1833 38.3944 10.5433 37.9944 10.8833 37.6544L11.5033 36.9344C11.7133 36.7244 10.9433 36.0544 10.8333 36.1744C10.6533 36.3544 10.7433 36.2644 10.5633 36.4444C9.91333 37.1344 9.41333 37.7544 9.23333 38.3544C9.08333 38.8644 9.08334 39.3544 9.08334 39.8944V39.9544C9.08334 40.1644 9.08333 40.3244 9.06333 40.4844C9.06333 40.6544 9.04333 40.8144 9.04333 41.0244C9.04333 41.0644 9.04333 41.1044 9.04333 41.1344C9.04333 41.1744 9.04333 41.2144 9.04333 41.2444L9.05334 41.2544ZM13.1933 41.0244C13.3533 40.9244 13.4433 40.8544 13.5433 40.8244C13.6433 40.7944 13.7533 40.9644 13.7333 41.0844C13.7233 41.2144 13.6333 41.3044 13.5133 41.2644C13.4133 41.2344 13.3333 41.1444 13.1833 41.0344L13.1933 41.0244Z" fill="#6B4E45"/>
<path d="M41.7533 9.91439C41.7033 9.72439 41.5933 9.61439 41.4633 9.49439C41.4033 9.43439 41.3033 9.34439 41.2333 9.29439C41.2233 9.28439 41.2033 9.27439 41.2033 9.27439L41.1733 9.25439H39.6533C39.1033 9.25439 38.5133 9.30439 37.9533 9.55439C37.4833 9.76439 37.1133 10.0844 36.7033 10.4844V10.5044C36.7033 10.5044 36.6833 10.5044 36.6733 10.5144C36.5433 10.6444 35.1133 12.0944 34.9833 12.2244C34.7733 12.4344 35.6333 13.0944 35.7533 12.9744C35.9033 12.8244 36.5233 12.2844 36.6633 12.1444C36.9233 11.8844 37.3633 11.4644 37.7933 11.0944C37.7533 11.0444 37.7133 10.9944 37.6733 10.9344C37.7433 10.8544 37.7933 10.7944 37.8633 10.7144C37.9233 10.7744 37.9733 10.8244 38.0333 10.8844C38.3533 10.6244 38.6633 10.4144 38.8633 10.3444C39.3233 10.1944 39.7933 10.1744 40.1933 10.1744H40.6733C40.8533 10.1744 40.9933 10.1744 41.1233 10.1644H41.1333V10.7044C41.1333 11.2644 41.1033 11.8744 40.8433 12.4544C40.6233 12.9544 40.2633 13.3544 39.9233 13.6944L39.3033 14.4144C39.0933 14.6244 39.8633 15.2944 39.9733 15.1744C40.1533 14.9944 40.0633 15.0844 40.2433 14.9044C40.8933 14.2144 41.3933 13.5944 41.5733 12.9944C41.7233 12.4844 41.7233 11.9844 41.7233 11.4544V11.3944C41.7233 11.1844 41.7233 11.0244 41.7433 10.8644C41.7433 10.6944 41.7633 10.5444 41.7633 10.3344C41.7633 10.2944 41.7633 10.2544 41.7633 10.2244C41.7633 10.1844 41.7633 10.1444 41.7633 10.1144C41.7633 10.0344 41.7633 9.97439 41.7433 9.92439L41.7533 9.91439ZM36.3433 12.1444C36.3433 12.1444 36.3133 12.1144 36.2933 12.0944C36.3233 12.0644 36.3333 12.0144 36.3633 11.9944C36.3933 11.9744 36.4333 11.9644 36.4633 11.9444C36.4833 11.9644 36.4933 11.9944 36.5133 12.0144C36.4533 12.0544 36.3933 12.0944 36.3433 12.1444ZM37.2433 10.7144C37.1033 10.6844 36.9733 10.6444 36.7833 10.6044C37.0033 10.4244 37.1233 10.6044 37.2633 10.6244C37.2633 10.6544 37.2533 10.6844 37.2433 10.7144ZM38.3233 10.3844C38.2033 10.2944 38.1133 10.2344 38.0033 10.1544C38.1433 10.1144 38.2333 10.0944 38.3833 10.0544C38.3633 10.1744 38.3533 10.2444 38.3233 10.3844Z" fill="#6B4E45"/>
<path d="M36.1533 40.3643L36.0133 40.3344L36.1233 40.4444C36.8133 41.0944 37.4333 41.5943 38.0333 41.7743C38.5433 41.9243 39.0333 41.9244 39.5733 41.9244H39.6333C39.8433 41.9244 40.0033 41.9244 40.1633 41.9444C40.3333 41.9444 40.4933 41.9644 40.7033 41.9644C40.7433 41.9644 40.7833 41.9644 40.8133 41.9644C40.8533 41.9644 40.8933 41.9644 40.9233 41.9644C41.0033 41.9644 41.0633 41.9644 41.1133 41.9444C41.3033 41.8944 41.4133 41.7843 41.5333 41.6543C41.5933 41.5943 41.6833 41.4944 41.7333 41.4244C41.7433 41.4144 41.7533 41.3944 41.7533 41.3944L41.7733 41.3643V39.8443C41.7733 39.2943 41.7233 38.7044 41.4733 38.1444C41.3633 37.8944 41.2133 37.6644 41.0433 37.4444C40.7433 37.2344 40.7833 37.2643 40.5533 36.9743C40.4733 36.8643 40.4133 36.7944 40.3633 36.7144C40.1633 36.5244 39.8133 36.1643 39.4833 35.8443C39.3533 35.7443 39.2433 35.6343 39.1433 35.5043C38.9733 35.3343 38.8333 35.2043 38.8033 35.1643C38.5933 34.9543 37.9333 35.8143 38.0533 35.9343C38.2033 36.0843 38.7433 36.7043 38.8833 36.8443C39.3933 37.3443 40.4933 38.5144 40.6733 39.0544C40.8233 39.5144 40.8433 39.9843 40.8433 40.3843V40.8643C40.8433 41.0443 40.8433 41.1843 40.8533 41.3143H40.8433L40.3133 41.3344C39.7533 41.3344 39.1433 41.3043 38.5633 41.0443C38.0633 40.8243 37.6633 40.4644 37.3233 40.1244L36.6033 39.5043C36.4033 39.3043 35.7633 40.0243 35.8433 40.1643C35.9533 40.1643 36.0533 40.2444 36.1333 40.3544L36.1533 40.3643ZM40.9033 41.4043C41.0133 41.2943 41.0933 41.2044 41.1933 41.1044C41.3233 41.3444 41.2733 41.4043 40.9033 41.4043Z" fill="#6B4E45"/>
<path d="M30.1033 13.5445C30.1033 13.5445 30.0833 12.9745 30.0233 12.9845C29.7833 13.0445 29.5233 13.0645 29.2633 13.0745C29.2833 13.1345 29.2833 13.2045 29.2833 13.2945C29.2533 13.2945 29.2333 13.3045 29.2133 13.3145C29.1833 13.2345 29.1533 13.1645 29.1133 13.0745C29.0933 13.0745 29.0633 13.0745 29.0433 13.0745C28.7633 13.0745 28.4833 13.0345 28.2233 12.9445C27.9833 12.8645 27.7433 12.7445 27.5133 12.6345C27.1533 12.4645 26.7833 12.2345 26.3833 12.1545C26.2733 12.1345 26.1533 12.1245 26.0733 12.2045C25.9633 12.3245 25.8933 12.5045 25.8033 12.6445C25.7033 12.8145 25.5933 12.9745 25.4933 13.1345C25.4633 13.1845 25.4133 13.2345 25.3933 13.2945C25.3933 13.2945 25.3933 13.3045 25.3933 13.3145C25.3933 13.3145 25.3933 13.3045 25.3933 13.2945C25.3433 13.1645 25.2133 13.0245 25.1333 12.9045C25.0233 12.7345 24.9133 12.5645 24.8133 12.3945C24.7533 12.2945 24.7133 12.1745 24.5733 12.1545C24.4333 12.1345 24.2733 12.1945 24.1533 12.2445C23.8533 12.3545 23.5733 12.5045 23.2833 12.6445C23.3233 12.6745 23.3533 12.7045 23.3733 12.7445C23.3733 12.7645 23.3233 12.8045 23.2833 12.8545C23.2333 12.7845 23.1933 12.7445 23.1733 12.6945C23.1033 12.7245 23.0233 12.7645 22.9533 12.8045C22.7833 12.8845 22.6133 12.9445 22.4433 12.9845C22.4933 13.0545 22.5433 13.1145 22.6033 13.1745C22.3933 13.1745 22.3333 13.1745 22.2933 13.0245C22.0233 13.0845 21.7433 13.1045 21.4633 13.0945C21.4033 13.1245 21.3533 13.1545 21.2933 13.1845C21.2833 13.1645 21.2633 13.1345 21.2533 13.1145C21.2733 13.1145 21.2833 13.0945 21.3033 13.0845C21.1233 13.0745 20.9433 13.0445 20.7633 13.0045C20.7233 13.0045 20.7133 13.3345 20.7133 13.4845C20.7533 13.5245 20.8033 13.5645 20.8433 13.6045C20.8133 13.7445 20.7533 13.8945 20.7333 14.0445C20.7333 14.0945 20.7533 14.1245 20.7833 14.1245C21.0733 14.1845 21.3833 14.2145 21.6833 14.2145C21.9033 14.1345 22.1633 14.0745 22.4533 14.0745C22.4833 14.0745 22.5133 14.0745 22.5433 14.0745C22.7233 14.0145 22.9133 13.9445 23.0933 13.8545C23.4833 13.6645 23.8633 13.4445 24.2733 13.3145C24.3833 13.2745 24.5433 13.2245 24.6533 13.2745C24.7633 13.3245 24.8333 13.5145 24.8933 13.6145C24.8633 13.6945 24.8333 13.7745 24.8133 13.8545L24.7233 14.1345C24.6933 14.2145 24.7233 14.3145 24.8033 14.3645L25.2833 14.6445C25.3433 14.6745 25.4133 14.6745 25.4733 14.6445L25.9633 14.3645C26.0433 14.3145 26.0833 14.2245 26.0533 14.1345L25.9333 13.7745C25.9233 13.7245 25.9033 13.6845 25.8933 13.6445C25.9233 13.5845 25.9633 13.5345 26.0033 13.4745C26.0633 13.3645 26.1033 13.2645 26.2433 13.2545C26.3933 13.2445 26.5533 13.3045 26.6833 13.3545C27.1033 13.5145 27.4933 13.7345 27.8933 13.9245C28.2233 14.0745 28.5633 14.1545 28.9233 14.1845C28.9933 14.1245 29.0633 14.0645 29.0733 14.0745C29.2933 14.2745 29.3933 14.0445 29.5833 13.8945C29.5833 14.0145 29.5833 14.1045 29.5833 14.1745C29.7333 14.1645 29.8833 14.1345 30.0333 14.1045C30.1233 14.0845 30.0833 13.6045 30.0833 13.5445H30.1033ZM27.3333 13.2045C27.3033 13.1445 27.2833 13.0745 27.2533 13.0145C27.2733 13.0045 27.2833 12.9945 27.3033 12.9845C27.3533 13.0245 27.3933 13.0645 27.4433 13.1045C27.4133 13.1345 27.3733 13.1745 27.3333 13.2045Z" fill="#6B4E45"/>
<path d="M30.0533 37.4645C29.8133 37.4045 29.5633 37.3745 29.3133 37.3745C29.1633 37.4045 29.0033 37.4245 28.8333 37.4245C28.7733 37.4245 28.7233 37.4245 28.6633 37.4245C28.4033 37.4645 28.1533 37.5445 27.9133 37.6445C27.5033 37.8245 27.1133 38.0445 26.7033 38.2145C26.5733 38.2645 26.4133 38.3245 26.2633 38.3145C26.1233 38.3045 26.0933 38.2045 26.0233 38.0945C25.9933 38.0345 25.9533 37.9845 25.9133 37.9245C25.9233 37.8845 25.9433 37.8345 25.9533 37.7945L26.0733 37.4345C26.1033 37.3445 26.0733 37.2545 25.9833 37.2045L25.4933 36.9145C25.4333 36.8845 25.3533 36.8845 25.3033 36.9145L24.8233 37.1945C24.7433 37.2445 24.7133 37.3345 24.7433 37.4245L24.8333 37.7045C24.8633 37.7845 24.8933 37.8645 24.9133 37.9445C24.8533 38.0445 24.7833 38.2345 24.6733 38.2845C24.5533 38.3345 24.4033 38.2845 24.2933 38.2445C24.1933 38.2145 24.1033 38.1745 24.0033 38.1345C23.9233 38.1345 23.8533 38.1145 23.7833 38.0545C23.7633 38.0445 23.7533 38.0245 23.7333 38.0145C23.5233 37.9145 23.3133 37.8045 23.1133 37.7045C22.8233 37.5645 22.5533 37.4645 22.2533 37.4145C22.1833 37.4145 22.1233 37.4145 22.0433 37.4145C21.8633 37.4145 21.6933 37.3945 21.5333 37.3545C21.2833 37.3545 21.0433 37.3845 20.8033 37.4345C20.7133 37.4545 20.7333 37.9245 20.7333 37.9945C20.7333 38.0345 20.7333 38.5645 20.7833 38.5545C21.4333 38.4145 22.1033 38.4345 22.7133 38.6545C22.8633 38.6845 23.0033 38.7345 23.1233 38.7845C23.0533 38.6545 22.9833 38.5545 22.9033 38.4245C23.1633 38.4645 23.1833 38.6045 23.1533 38.8045C23.2833 38.8645 23.3933 38.9345 23.4933 39.0245C23.7133 39.1345 23.9233 39.2345 24.1533 39.3245C24.2833 39.3745 24.4433 39.4345 24.5733 39.4145C24.7033 39.3945 24.7533 39.2745 24.8133 39.1745C24.9133 39.0045 25.0233 38.8345 25.1333 38.6645C25.2133 38.5445 25.3433 38.4045 25.3933 38.2745V38.2545C25.3933 38.2545 25.3933 38.2645 25.3933 38.2745C25.4133 38.3245 25.4633 38.3845 25.4933 38.4245C25.5933 38.5845 25.7033 38.7545 25.8033 38.9145C25.8833 39.0545 25.9633 39.2345 26.0733 39.3545C26.1533 39.4345 26.2733 39.4245 26.3833 39.4045C26.7833 39.3245 27.1533 39.0945 27.5133 38.9245C27.7433 38.8145 27.9733 38.6945 28.2233 38.6145C28.4833 38.5245 28.7633 38.4945 29.0433 38.4845C29.3733 38.4845 29.7033 38.5045 30.0233 38.5845C30.0833 38.5945 30.0933 38.0645 30.1033 38.0245C30.1033 37.9545 30.1433 37.4845 30.0533 37.4645ZM24.0533 38.6445C23.9133 38.6745 23.7233 38.5645 23.5833 38.5845C24.1033 38.2445 24.3233 38.2145 24.4133 38.4245C24.2833 38.4645 24.1933 38.6145 24.0533 38.6445Z" fill="#6B4E45"/>
<path d="M38.9833 26.4545C38.8633 26.3445 38.6833 26.2745 38.5433 26.1845C38.3833 26.0845 38.2133 25.9745 38.0533 25.8745C38.0033 25.8445 37.9533 25.7945 37.9033 25.7745C38.0333 25.7245 38.1733 25.5945 38.2933 25.5145C38.4633 25.4045 38.6333 25.2945 38.8033 25.1945C38.9033 25.1345 39.0033 25.0945 39.0333 24.9845C39.0033 24.8645 38.9933 24.7445 38.9833 24.6145C38.9733 24.5845 38.9633 24.5545 38.9533 24.5345C38.7933 24.1145 38.5733 23.7345 38.3933 23.3345C38.0733 22.6545 38.0333 21.8845 38.1933 21.1545C38.2033 21.1045 37.6733 21.1045 37.6333 21.1045C37.5633 21.1045 37.0933 21.0945 37.0733 21.1745C37.0433 21.3245 37.0133 21.4745 37.0033 21.6245C37.0533 21.6645 37.0933 21.7045 37.1433 21.7545C37.0633 22.0745 36.8833 22.4345 37.2433 22.7145C37.2033 22.8045 37.1433 22.8045 37.0733 22.7945C37.1333 23.0245 37.2233 23.2545 37.3333 23.4845C37.5133 23.8745 37.7433 24.2545 37.8733 24.6645C37.9033 24.7745 37.9633 24.9345 37.9133 25.0445C37.8633 25.1545 37.6733 25.2245 37.5733 25.2845C37.4933 25.2545 37.4133 25.2245 37.3333 25.2045L37.0533 25.1145C36.9633 25.0845 36.8733 25.1145 36.8233 25.1945L36.5433 25.6745C36.5133 25.7345 36.5133 25.8045 36.5433 25.8645L36.8333 26.3545C36.8833 26.4345 36.9733 26.4745 37.0633 26.4445L37.4233 26.3245C37.4633 26.3145 37.5133 26.2945 37.5533 26.2845C37.6133 26.3145 37.6633 26.3545 37.7233 26.3845C37.8333 26.4445 37.9333 26.4845 37.9433 26.6245C37.9533 26.7745 37.8933 26.9345 37.8433 27.0645C37.6833 27.4845 37.4633 27.8745 37.2833 28.2745C37.2833 28.2845 37.2733 28.3045 37.2633 28.3145C37.2333 28.5845 37.1633 28.8445 37.0433 29.0845C36.9833 29.5245 37.0133 29.9645 37.1033 30.4045C37.1233 30.4945 37.6033 30.4545 37.6633 30.4545C37.7133 30.4545 38.2433 30.4345 38.2233 30.3845C38.1533 30.0645 38.1233 29.7345 38.1333 29.4045C38.1333 29.1245 38.1733 28.8545 38.2633 28.5845C38.3433 28.3445 38.4633 28.1145 38.5733 27.8745C38.6433 27.6645 38.7333 27.4745 38.8633 27.2945C38.9433 27.1145 39.0133 26.9345 39.0533 26.7445C39.0733 26.6445 39.0833 26.5145 39.0033 26.4345L38.9833 26.4545ZM37.8333 24.2945C37.8333 24.2245 37.8133 24.1545 37.8033 24.0845C37.8233 24.0845 37.8333 24.0845 37.8533 24.0745C37.8733 24.1445 37.8933 24.2145 37.9133 24.2845C37.8833 24.2845 37.8633 24.2945 37.8333 24.3045V24.2945Z" fill="#6B4E45"/>
<path d="M14.2933 25.6744L14.0133 25.1944C13.9633 25.1144 13.8733 25.0844 13.7833 25.1144L13.5033 25.2044C13.4233 25.2244 13.3433 25.2544 13.2633 25.2844C13.1633 25.2244 12.9733 25.1544 12.9233 25.0444C12.8733 24.9344 12.9233 24.7744 12.9533 24.6644C13.0833 24.2544 13.3133 23.8744 13.4933 23.4844C13.6933 23.0544 13.8333 22.6344 13.8433 22.1544C13.8433 21.8244 13.8233 21.4944 13.7533 21.1744C13.7333 21.0844 13.2633 21.1044 13.1933 21.1044C13.1533 21.1044 12.6133 21.1044 12.6333 21.1544C12.7933 21.8844 12.7533 22.6544 12.4333 23.3344C12.2433 23.7344 12.0233 24.1244 11.8633 24.5344C11.8633 24.5444 11.8633 24.5644 11.8533 24.5744C11.8833 24.6044 11.8933 24.6344 11.8933 24.6644C11.8933 24.7044 11.8533 24.7444 11.7833 24.7844C11.7733 24.8444 11.7633 24.9044 11.7833 24.9544C11.8033 25.0844 11.9133 25.1344 12.0233 25.1944C12.1933 25.2944 12.3633 25.4044 12.5333 25.5144C12.6533 25.5944 12.7933 25.7244 12.9233 25.7744C12.9233 25.7744 12.9333 25.7744 12.9433 25.7744C12.9433 25.7744 12.9333 25.7744 12.9233 25.7744C12.8633 25.7944 12.8133 25.8444 12.7633 25.8744C12.6033 25.9744 12.4333 26.0844 12.2733 26.1844C12.1333 26.2644 11.9533 26.3444 11.8333 26.4544C11.7433 26.5344 11.7533 26.6544 11.7833 26.7644C11.8633 27.1644 12.0933 27.5344 12.2633 27.8944C12.2733 27.9244 12.2933 27.9544 12.3033 27.9744C12.3833 27.9644 12.4733 27.9644 12.5233 27.9944C12.7033 28.1244 12.8633 28.2844 13.0533 28.4544C12.8833 28.5344 12.7533 28.6044 12.5933 28.6744C12.5933 28.6744 12.5933 28.6744 12.5833 28.6744C12.5833 28.6744 12.5933 28.6744 12.6033 28.6844C12.6033 28.6844 12.6833 28.7544 12.7033 28.7644C12.7933 28.8044 12.9033 28.8244 12.8733 28.9644C12.8433 29.0644 12.7833 29.1344 12.6933 29.1544C12.6933 29.2344 12.7133 29.3244 12.7133 29.4044C12.7133 29.7344 12.6933 30.0644 12.6133 30.3844C12.6033 30.4344 13.1333 30.4544 13.1733 30.4544C13.2333 30.4544 13.7133 30.4944 13.7333 30.4044C13.8333 29.9444 13.8633 29.4644 13.7833 29.0044V28.9844C13.7433 28.7344 13.6733 28.4944 13.5633 28.2644C13.3833 27.8544 13.1633 27.4644 13.0033 27.0544C12.9533 26.9244 12.8833 26.7644 12.9033 26.6144C12.9133 26.4744 13.0133 26.4444 13.1233 26.3744C13.1833 26.3444 13.2333 26.3044 13.2933 26.2744C13.3333 26.2844 13.3833 26.3044 13.4233 26.3144L13.7833 26.4344C13.8733 26.4644 13.9633 26.4344 14.0133 26.3444L14.2933 25.8544C14.3233 25.7944 14.3233 25.7144 14.2933 25.6644V25.6744ZM12.8633 23.7844C12.8633 23.7844 12.9233 23.7144 12.9633 23.7044C12.9733 23.7044 13.0133 23.7344 13.0633 23.7544C13.0233 23.8044 12.9933 23.8544 12.9633 23.8544C12.9433 23.8544 12.9033 23.8044 12.8733 23.7844H12.8633Z" fill="#6B4E45"/>
<path d="M19.0333 16.8444C18.8233 16.5144 18.3633 15.8844 18.0833 15.6044C17.9633 15.4844 17.8033 15.4944 17.6833 15.6044C17.6433 15.6344 17.6133 15.6744 17.5833 15.7244C17.4433 15.9244 17.3133 16.1244 17.1733 16.3344C17.1233 16.4044 17.0933 16.4144 17.0133 16.3644C16.9433 16.3044 16.8533 16.2444 16.7633 16.2144C16.6133 16.1644 16.4633 16.1244 16.3133 16.1044C16.0433 16.0644 15.8433 15.8944 15.7733 15.6544C15.7533 15.5744 15.7633 15.5144 15.8533 15.4744C16.0333 15.4044 16.2033 15.3244 16.3833 15.2744C16.6033 15.2144 16.8033 15.2744 16.9633 15.4344L17.5733 14.8944C17.5733 14.8344 17.5533 14.8044 17.5033 14.7844C17.3833 14.7244 17.2733 14.6744 17.1533 14.6144C16.8533 14.4544 16.5533 14.2844 16.3133 14.0344C16.2833 13.9944 16.2233 13.9844 16.1733 13.9644C16.0833 13.9344 15.9833 13.9044 15.8933 13.8744C15.7933 13.8444 15.6933 13.8144 15.5933 13.7944C15.4933 13.7844 15.3833 13.7944 15.2833 13.8044C15.2533 13.8044 15.2333 13.8044 15.2033 13.8244C15.1233 13.8444 15.0533 13.9144 14.9833 13.9744C14.9033 14.0444 14.8233 14.1244 14.7433 14.1944C13.9233 15.0544 13.5333 16.2744 13.5233 17.4444C13.5233 17.7544 13.8033 17.4144 13.8733 17.3344C14.0533 17.1044 14.2133 16.7444 14.2133 16.4444C14.2133 15.9044 14.3533 15.4744 14.6533 15.1644L14.9433 15.1144C14.8433 15.2844 14.7633 15.4644 14.7233 15.5844C14.6233 15.9644 14.7633 16.2744 14.9933 16.5544C15.1833 16.7944 15.2733 16.9544 15.5033 17.1344C15.6233 17.2344 15.7533 17.3444 15.8533 17.4644C16.0133 17.6444 16.0733 17.9844 16.0133 18.2844C15.6733 18.5544 15.2933 18.7644 14.8833 18.9044C14.8333 18.9144 15.1133 19.3744 15.1333 19.4144C15.1733 19.4744 15.4033 19.8844 15.4933 19.8544C15.8033 19.7544 16.0933 19.6044 16.3633 19.4344C16.3033 19.3944 16.2533 19.3544 16.1833 19.3144C16.2233 19.1644 16.2533 19.0244 16.2933 18.8744C16.6033 18.8744 16.6933 18.9244 16.7533 19.1344C16.9333 18.9744 17.0833 18.8044 17.2233 18.6044C17.3833 18.4144 17.5133 18.1844 17.5933 17.9144C17.6633 17.6844 17.6433 17.4544 17.6133 17.2244C17.5633 16.8144 17.6833 16.4344 17.8733 16.0844C17.9033 16.0244 17.9433 15.9844 18.0033 16.0444C18.1133 16.1844 18.4333 16.6744 18.5233 16.8344C18.6133 16.9944 18.6033 17.1544 18.4833 17.3144C18.4133 17.4144 18.3533 17.5144 18.2833 17.6044C18.2333 17.6744 18.2133 17.7244 18.2833 17.7944C18.3233 17.8344 18.3533 17.8844 18.3833 17.9244C18.5033 18.0744 18.6233 18.2244 18.7533 18.3844C18.7733 18.3544 18.7833 18.3444 18.7933 18.3244C18.9133 17.9744 19.0533 17.6244 19.1033 17.2444C19.1233 17.0944 19.0933 16.9544 19.0133 16.8344L19.0333 16.8444ZM15.3233 13.9044C15.4333 13.9544 15.5233 13.9944 15.6533 14.0544C15.3233 14.1744 15.3233 14.1744 15.3233 13.9044ZM15.7633 15.9344C15.7633 15.9344 15.7133 15.8944 15.6833 15.8644C15.7333 15.8444 15.7733 15.8244 15.7933 15.8344C15.8233 15.8344 15.8333 15.8844 15.8533 15.9044C15.8233 15.9144 15.7933 15.9344 15.7733 15.9344H15.7633Z" fill="#6B4E45"/>
<path d="M34.6233 37.5045C34.7133 37.5345 34.8133 37.5645 34.9033 37.5945C35.0133 37.6245 35.1133 37.6645 35.2233 37.6745C35.3233 37.6945 35.5133 37.6845 35.6133 37.6345C35.6333 37.6345 35.6533 37.6145 35.6733 37.6045C35.8133 37.5045 35.9333 37.3945 36.0533 37.2745C36.8733 36.4145 37.2633 35.1945 37.2733 34.0245C37.2733 33.7145 36.9933 34.0545 36.9233 34.1345C36.7433 34.3645 36.5833 34.7245 36.5833 35.0245C36.5833 35.5645 36.4433 35.9945 36.1433 36.3045L35.8533 36.3545C35.9533 36.1845 36.0333 36.0045 36.0733 35.8845C36.1733 35.5045 36.0333 35.1945 35.8033 34.9145C35.6133 34.6745 35.5233 34.5145 35.2933 34.3245C35.1733 34.2245 35.0433 34.1145 34.9433 33.9945C34.7833 33.8045 34.7133 33.4745 34.7833 33.1745C35.1133 32.9045 35.5033 32.6945 35.9133 32.5545C35.9633 32.5345 35.6833 32.0845 35.6633 32.0445C35.6233 31.9845 35.3933 31.5745 35.3133 31.6045C35.0033 31.7045 34.7033 31.8645 34.4233 32.0345C34.0733 32.2545 33.8133 32.5345 33.5833 32.8545C33.4233 33.0445 33.2933 33.2745 33.2133 33.5445C33.1433 33.7745 33.1633 34.0045 33.1933 34.2345C33.2433 34.6445 33.1233 35.0245 32.9333 35.3845C32.9033 35.4445 32.8633 35.4845 32.8033 35.4245C32.6833 35.2845 32.3733 34.7945 32.2833 34.6345C32.1933 34.4745 32.2133 34.3145 32.3233 34.1645C32.3933 34.0645 32.4533 33.9645 32.5233 33.8745C32.5733 33.8045 32.5933 33.7545 32.5233 33.6845C32.4833 33.6445 32.4533 33.5945 32.4233 33.5545C32.3033 33.4045 32.1833 33.2545 32.0533 33.0945C32.0333 33.1145 32.0233 33.1345 32.0133 33.1545C31.8833 33.5045 31.7533 33.8545 31.7033 34.2345C31.6833 34.3845 31.7133 34.5245 31.7933 34.6445C31.8733 34.7745 31.9933 34.9445 32.1233 35.1245C32.1733 35.1245 32.2233 35.1245 32.2633 35.1245L32.2733 35.1845C32.2433 35.1845 32.2133 35.2045 32.1733 35.2045C32.3633 35.4645 32.5733 35.7345 32.7333 35.8845C32.8533 36.0045 33.0133 35.9945 33.1333 35.8845C33.1733 35.8545 33.2033 35.8145 33.2233 35.7645C33.3633 35.5645 33.5033 35.3645 33.6333 35.1545C33.6833 35.0845 33.7233 35.0745 33.7933 35.1345C33.8633 35.1945 33.9533 35.2545 34.0433 35.2745C34.1833 35.3245 34.3433 35.3645 34.4933 35.3845C34.7633 35.4245 34.9633 35.5945 35.0333 35.8345C35.0533 35.9145 35.0433 35.9745 34.9633 36.0145C34.7833 36.0745 34.6133 36.1645 34.4233 36.2145C34.2033 36.2745 34.0033 36.2145 33.8433 36.0545L33.5933 36.2745C33.5933 36.2745 33.5533 36.3545 33.4933 36.3945C33.4933 36.3945 33.4733 36.3945 33.4633 36.3945L33.2333 36.5945C33.2333 36.6545 33.2533 36.6845 33.3033 36.7045C33.4233 36.7545 33.5333 36.8145 33.6433 36.8745C33.9433 37.0345 34.2433 37.2045 34.4833 37.4645C34.5133 37.5045 34.5733 37.5145 34.6233 37.5345V37.5045Z" fill="#6B4E45"/>
<path d="M37.3334 15.6244C37.3334 15.6244 37.3333 15.5744 37.3133 15.5444C37.2533 15.3844 37.0634 15.2144 36.9434 15.1044C36.0834 14.2844 34.8634 13.8944 33.6934 13.8844C33.3934 13.8844 33.7234 14.1644 33.8034 14.2344C34.0334 14.4144 34.3833 14.5744 34.6833 14.5744C35.2233 14.5744 35.6534 14.7144 35.9634 15.0144L36.0133 15.3044C35.8433 15.2044 35.6633 15.1244 35.5433 15.0844C35.1633 14.9844 34.8533 15.1244 34.5733 15.3444C34.3433 15.5344 34.1734 15.6244 33.9934 15.8544C33.8934 15.9744 33.7834 16.1044 33.6634 16.2044C33.4834 16.3644 33.1433 16.4344 32.8433 16.3644C32.6633 16.1444 32.5134 15.9044 32.3934 15.6444C32.2234 15.6444 32.1034 15.5244 32.1034 15.3944C32.1034 15.3344 32.1134 15.2944 32.1334 15.2544C31.9934 15.3144 31.7434 15.4644 31.7134 15.4844C31.6534 15.5244 31.2434 15.7544 31.2734 15.8344C31.3734 16.1444 31.5233 16.4444 31.7033 16.7244C31.7633 16.8144 31.8234 16.8944 31.8834 16.9744C31.9034 16.9144 31.9234 16.8644 31.9434 16.8044C31.9834 16.8044 32.0134 16.8144 32.0534 16.8144C32.0634 16.9244 32.0834 17.0344 32.1034 17.2044C32.2334 17.3344 32.3734 17.4544 32.5334 17.5644C32.7234 17.7244 32.9534 17.8544 33.2234 17.9344C33.4534 18.0044 33.6834 17.9844 33.9134 17.9544C34.3234 17.9044 34.7034 18.0244 35.0534 18.2144C35.1134 18.2444 35.1533 18.2844 35.0933 18.3444C34.9533 18.4644 34.4634 18.7744 34.3034 18.8744C34.1434 18.9644 33.9833 18.9444 33.8233 18.8344C33.7233 18.7644 33.6234 18.7044 33.5334 18.6344C33.4634 18.5844 33.4133 18.5644 33.3433 18.6344C33.3033 18.6744 33.2534 18.7044 33.2134 18.7344C33.0634 18.8544 32.9134 18.9744 32.7534 19.1044C32.7834 19.1144 32.7933 19.1344 32.8133 19.1444C33.1633 19.2744 33.5134 19.4044 33.8934 19.4544C34.0434 19.4744 34.1834 19.4444 34.3034 19.3644C34.6334 19.1544 35.2633 18.6944 35.5433 18.4144C35.6633 18.2944 35.6533 18.1344 35.5433 18.0144C35.5133 17.9744 35.4734 17.9544 35.4234 17.9244C35.2234 17.7844 35.0233 17.6544 34.8133 17.5144C34.7433 17.4644 34.7333 17.4244 34.7933 17.3544C34.8533 17.2844 34.9033 17.1944 34.9333 17.1144C34.9833 16.9644 35.0233 16.8144 35.0433 16.6644C35.0833 16.3944 35.2534 16.1944 35.4934 16.1244C35.5734 16.1044 35.6334 16.1044 35.6734 16.1944C35.7434 16.3744 35.8233 16.5444 35.8733 16.7344C35.9333 16.9544 35.8734 17.1544 35.7134 17.3144L36.2534 17.9244C36.3134 17.9244 36.3434 17.9044 36.3634 17.8544C36.4234 17.7444 36.4734 17.6244 36.5334 17.5144C36.6934 17.2144 36.8634 16.9144 37.1134 16.6744C37.1534 16.6344 37.1633 16.5844 37.1833 16.5344C37.2133 16.4444 37.2434 16.3444 37.2734 16.2544C37.3334 16.0344 37.3734 15.8644 37.3334 15.6344V15.6244ZM33.7234 19.0944C33.7767 18.9544 33.8633 18.9144 33.9833 18.9744C33.8933 19.0144 33.8134 19.0544 33.7234 19.0944ZM35.7534 16.0044C35.8734 16.0444 35.9633 16.0744 36.0633 16.1144C35.9433 16.1244 35.8234 16.2344 35.7534 16.0044ZM36.5633 15.1344C36.7433 15.1344 36.8734 15.1044 36.8534 15.3144C36.7634 15.2544 36.6733 15.2044 36.5633 15.1344ZM37.0034 15.6244C37.0334 15.7044 37.0633 15.7744 37.1233 15.9144C36.8833 15.8344 36.8334 15.7644 37.0034 15.6244Z" fill="#6B4E45"/>
<path d="M19.1133 34.7444C18.8933 34.3944 18.6133 34.1344 18.2933 33.9044C18.1033 33.7444 17.8734 33.6144 17.6034 33.5344C17.3734 33.4644 17.1533 33.4844 16.9233 33.5144C16.5133 33.5644 16.1333 33.4544 15.7733 33.2544C15.7233 33.2244 15.6734 33.1844 15.7434 33.1244C15.8834 33.0144 16.3733 32.6944 16.5333 32.6044C16.6933 32.5144 16.8533 32.5244 17.0133 32.6444C17.1033 32.7144 17.2133 32.7744 17.3033 32.8444C17.3733 32.8944 17.4234 32.9144 17.4934 32.8444C17.5334 32.8044 17.5833 32.7744 17.6233 32.7444C17.7733 32.6244 17.9233 32.5044 18.0833 32.3744C18.0533 32.3544 18.0433 32.3444 18.0333 32.3344C17.6833 32.2044 17.3333 32.0744 16.9533 32.0244C16.8033 32.0044 16.6633 32.0344 16.5433 32.1144C16.2133 32.3244 15.5733 32.7844 15.3033 33.0644C15.1833 33.1844 15.1933 33.3444 15.3033 33.4644C15.3333 33.5044 15.3833 33.5244 15.4233 33.5544C15.6233 33.6944 15.8233 33.8244 16.0333 33.9644C16.1033 34.0144 16.1133 34.0444 16.0633 34.1244C16.0033 34.1944 15.9433 34.2844 15.9133 34.3744C15.8633 34.5244 15.8233 34.6744 15.8033 34.8244C15.7533 35.0944 15.5834 35.2944 15.3534 35.3644C15.2734 35.3844 15.2133 35.3744 15.1833 35.2844C15.1133 35.1044 15.0333 34.9344 14.9833 34.7544C14.9233 34.5344 14.9833 34.3344 15.1433 34.1744L14.6034 33.5644C14.5434 33.5644 14.5133 33.5844 14.4833 33.6344C14.4333 33.7544 14.3733 33.8644 14.3133 33.9844C14.1533 34.2844 13.9833 34.5844 13.7233 34.8244C13.6833 34.8544 13.6733 34.9144 13.6533 34.9644C13.6233 35.0544 13.5933 35.1544 13.5633 35.2444C13.5033 35.4444 13.4633 35.6544 13.5033 35.8744C13.5333 36.0744 13.7434 36.2644 13.8834 36.3944C14.7434 37.2144 15.9634 37.6044 17.1334 37.6144C17.4434 37.6144 17.1033 37.3344 17.0233 37.2644C16.7933 37.0844 16.4333 36.9244 16.1433 36.9244C15.6033 36.9244 15.1733 36.7844 14.8633 36.4844L14.8133 36.1944C14.9833 36.2944 15.1633 36.3744 15.2833 36.4144C15.6533 36.5144 15.9733 36.3744 16.2533 36.1444C16.4933 35.9544 16.6533 35.8644 16.8433 35.6344C16.9433 35.5044 17.0533 35.3844 17.1733 35.2844C17.3633 35.1244 17.6934 35.0644 17.9934 35.1244C18.0334 35.1844 18.0733 35.2344 18.1133 35.2944C18.1133 35.2944 18.1133 35.2744 18.1233 35.2744C18.1833 35.3044 18.2533 35.3344 18.3133 35.3644C18.2933 35.4044 18.2734 35.4344 18.2434 35.4744C18.2334 35.4744 18.2234 35.4644 18.2134 35.4544C18.3734 35.7044 18.5034 35.9744 18.6034 36.2744C18.6234 36.3244 19.0733 36.0444 19.1133 36.0244C19.1733 35.9844 19.5833 35.7544 19.5533 35.6644C19.4433 35.3544 19.2933 35.0544 19.1233 34.7744L19.1133 34.7444ZM18.9333 34.7944C18.9333 34.7944 18.8733 34.7144 18.8733 34.6744C18.8733 34.6644 18.9333 34.6144 18.9533 34.6244C18.9833 34.6444 19.0133 34.6844 19.0433 34.7144C19.0133 34.7344 18.9933 34.7544 18.9433 34.7944H18.9333Z" fill="#6B4E45"/>
<path d="M25.8433 19.5644C25.9233 19.4444 25.3033 18.2744 24.9033 18.6744L24.8733 19.5144C23.9133 19.5144 23.7833 20.8344 24.6133 21.1944V21.6144C23.8533 21.7744 23.2433 21.5944 22.4933 21.5944V21.9344C22.3233 21.6344 21.9333 21.5644 21.7533 21.3144C19.7233 20.6344 18.5533 20.6444 18.1333 21.7244C18.1333 21.7744 18.1433 21.8144 18.1533 21.8644C18.1533 22.1544 18.1033 22.4144 17.9733 22.6644C17.9733 22.6744 17.9733 22.6844 17.9633 22.6944C17.9433 23.0744 17.9633 23.5144 18.0233 24.0344C18.0633 24.5244 17.9733 25.1544 18.0233 25.7344C18.0833 25.9044 18.1133 26.0844 18.1233 26.2644C18.1733 26.4344 18.2433 26.5944 18.3433 26.7344C19.1733 28.1144 19.8633 26.1544 22.0733 27.3144C22.3133 27.3944 22.5533 27.4744 22.7933 27.5444C22.9633 27.3944 23.2833 27.3644 23.2833 27.6544C23.7133 27.7344 24.1633 27.7344 24.6233 27.7244C24.7533 29.2944 24.3133 30.2344 24.8833 31.0244C25.0133 30.9744 25.1633 30.9244 25.3333 30.8644C25.4133 31.0044 25.4833 31.1444 25.5633 31.2844C25.2533 31.4544 24.9133 31.5244 24.6333 31.7144C24.6533 31.9844 24.5133 32.3544 24.9933 32.3544C25.2833 32.3544 26.2233 32.1844 26.2233 31.8944C26.2233 31.2844 26.2233 30.4244 26.2233 29.4344C26.2233 29.4044 26.2033 29.3844 26.1933 29.3544C26.1633 29.1744 26.1433 28.9844 26.1133 28.8044C26.1133 28.5844 26.1433 28.3844 26.2133 28.1844C26.2133 26.9144 26.2133 25.5444 26.2133 24.2944C26.1933 24.1344 26.1733 23.9844 26.1533 23.8244C26.1533 23.6544 26.1733 23.4844 26.2133 23.3244C26.2133 22.5044 26.2133 21.7644 26.2133 21.2044C26.2133 21.2044 26.2133 21.1344 26.2133 21.0444C26.9733 20.5844 26.5333 19.8244 25.8633 19.5344L25.8433 19.5644ZM22.8233 22.1144C22.7233 22.1944 22.6333 22.2744 22.5333 22.3544C22.5433 22.1844 22.6033 22.0744 22.8233 22.1144ZM20.9733 26.4944V26.1644H21.0533C21.0533 26.2744 21.0633 26.3844 21.0733 26.4944C21.0433 26.4944 21.0133 26.4944 20.9733 26.4944ZM24.6033 23.8344V26.2444C24.4533 26.2744 24.3033 26.2944 24.1533 26.3144C23.8333 26.3444 23.5233 26.3444 23.2233 26.3144H23.2133C22.7933 26.2744 22.3833 26.1844 21.9733 26.0544C21.9733 26.0544 21.9633 26.0544 21.9533 26.0544C21.8133 26.0144 21.6733 25.9644 21.5333 25.9144C21.4633 25.8944 21.4033 25.8744 21.3333 25.8444C21.0833 25.7544 20.8233 25.6644 20.5533 25.6044C20.4833 25.5944 20.4233 25.5744 20.3533 25.5644C20.2233 25.5344 20.0933 25.5244 19.9533 25.5044C19.8833 25.5044 19.8233 25.5044 19.7533 25.5044C19.7033 25.5044 19.6533 25.5044 19.5933 25.5044C19.4833 25.5044 19.3633 25.5244 19.2533 25.5444C19.2033 25.5544 19.1433 25.5644 19.0933 25.5844V25.0944C19.0933 25.0944 19.0733 25.1144 19.0533 25.1244C19.0233 25.0244 18.9933 24.9444 18.9633 24.8744H18.9533C18.9533 24.8744 18.9533 24.8744 18.9533 24.8644C18.8833 24.8544 18.8033 24.8344 18.7333 24.8244C18.7333 24.8044 18.7333 24.7844 18.7233 24.7544C18.7933 24.7344 18.8533 24.7144 18.9233 24.6944C18.9333 24.7544 18.9433 24.8044 18.9533 24.8644C18.9533 24.8644 18.9533 24.8644 18.9633 24.8644C18.9633 24.8644 18.9633 24.8644 18.9633 24.8744H19.0933C19.1133 24.6044 19.1133 24.3444 19.0933 24.0944C19.0733 23.6944 19.0333 23.3244 19.0933 23.0344C19.0933 23.0344 19.0933 23.0344 19.0933 23.0244C19.1233 22.8344 19.2033 22.6744 19.3533 22.5544C19.5233 22.4144 19.7833 22.3244 20.1833 22.3044H20.2033C20.2833 22.3044 20.3633 22.3044 20.4533 22.3044H20.4733C20.5133 22.2444 20.5833 22.1944 20.6833 22.1644C20.6833 22.2344 20.6633 22.2844 20.6433 22.3244C21.0133 22.3744 21.3933 22.4644 21.7733 22.5844C21.7933 22.5844 21.8133 22.5944 21.8333 22.6044C22.3433 22.7544 22.8533 22.9344 23.3733 23.0344C23.4333 23.0444 23.5033 23.0644 23.5633 23.0644C23.9133 23.1244 24.2633 23.1544 24.6133 23.1244V23.4644C24.6833 23.4644 24.7633 23.5744 24.8833 23.6644C24.7633 23.7344 24.6933 23.8044 24.6133 23.8444L24.6033 23.8344ZM25.0533 29.9544C24.9633 29.8144 24.9133 29.7744 25.0533 29.6844C25.1433 29.7944 25.1833 29.8244 25.0533 29.9544ZM25.3033 29.9544C25.4633 29.9544 25.5533 29.9344 25.6333 29.9544C26.1433 30.2644 25.2233 30.5044 25.3033 29.9544ZM25.8333 26.4244H25.7533C25.7733 26.3144 25.5533 26.1844 25.8333 26.0544V26.4244Z" fill="#6B4E45"/>
<path d="M31.7134 28.5044C31.6734 27.9744 31.8834 27.4444 31.2534 26.9744C30.8434 26.6644 30.9334 25.8044 30.8334 25.3544C30.7534 25.0044 30.6634 24.6544 30.5834 24.2944C30.5534 24.3144 30.4934 24.3144 30.4734 24.2944C30.3634 24.2044 30.3834 24.1144 30.5134 24.0144C30.4134 23.6244 30.3033 23.2444 30.1833 22.8644C30.1633 22.7844 30.1333 22.7044 30.0733 22.6544C30.0133 22.6144 29.9434 22.6044 29.8834 22.5944C29.3734 22.5344 28.8634 22.5044 28.3634 22.4944C28.1934 22.4944 28.0334 22.4944 27.8634 22.4944C27.8234 22.5244 27.7834 22.5544 27.7334 22.5944C27.7334 22.5544 27.7334 22.5244 27.7434 22.4944C27.5134 22.5144 27.2834 22.5544 27.0634 22.6244C26.9334 22.6744 26.8034 22.7344 26.7334 22.8644C26.7034 22.9444 26.6934 23.0344 26.6934 23.1144C26.6834 23.6744 26.6634 24.2244 26.6434 24.7844C26.6234 25.4744 26.6134 26.1844 26.8734 26.8244C27.1834 27.5644 27.8434 28.1144 28.5634 28.4844C28.8534 27.4644 29.2834 26.4844 29.8534 25.5944C29.8734 25.5644 29.8934 25.5444 29.9234 25.5344C29.9534 25.5344 29.9734 25.5544 29.9934 25.5644C30.1534 25.7044 30.3134 25.8544 30.4634 26.0044C30.4834 26.0044 30.5034 25.9944 30.5234 25.9844C30.5334 26.0144 30.5434 26.0544 30.5534 26.0844C30.5934 26.2344 30.6333 26.3844 30.6833 26.5244C30.7133 26.6244 30.7434 26.7344 30.7734 26.8344C30.8034 26.9644 30.7334 27.0544 30.6134 27.0744C30.5934 27.0744 30.5734 27.0744 30.5534 27.0744C30.5734 27.1544 30.5934 27.2444 30.6234 27.3244C30.8034 27.8644 31.0434 28.4144 30.9034 28.9644C30.8534 29.1844 30.7334 29.3744 30.5934 29.5544C30.6134 29.4144 30.5934 29.2644 30.5034 29.1544C30.1634 28.7244 29.7834 29.0044 29.7534 29.4644C29.7234 29.8244 29.8334 30.1844 29.8834 30.5344C29.8134 30.8344 29.7334 31.1344 29.6934 31.4344C29.6834 31.5544 29.6734 31.6744 29.7134 31.7844C29.8534 32.1444 30.2933 31.8844 30.4333 31.6544C30.7033 31.2044 30.2234 30.3244 30.8734 30.0344C31.0934 29.9344 31.2634 29.8044 31.3934 29.6644C31.3634 29.4844 31.3433 29.3444 31.3233 29.2044C31.3233 29.1444 31.3434 29.0444 31.3734 29.0344C31.6034 28.9644 31.6234 28.7544 31.7034 28.5844C31.7134 28.5844 31.7234 28.5944 31.7334 28.6144C31.7334 28.5644 31.7334 28.5244 31.7334 28.4744L31.7134 28.5044ZM27.7934 24.1144C27.7334 24.0744 27.6834 24.0244 27.6234 23.9844L27.6534 23.9544L27.8233 24.0744C27.8233 24.0744 27.8034 24.1044 27.7934 24.1144ZM28.1934 26.8344C28.1234 26.8244 28.0633 26.7344 27.9333 26.6444C28.0533 26.5644 28.1134 26.5044 28.1734 26.4944C28.2834 26.4744 28.3534 26.5444 28.3634 26.6644C28.3634 26.7944 28.2933 26.8544 28.1833 26.8344H28.1934ZM28.5733 27.2444V26.7944C28.7033 26.9844 28.7133 27.0944 28.5733 27.2444ZM28.9734 26.9744C28.9034 26.9344 28.8434 26.8844 28.7334 26.8244C28.9134 26.7144 29.0034 26.7244 29.0434 26.8344C29.0534 26.8644 28.9934 26.9244 28.9634 26.9744H28.9734ZM29.9634 29.7044C30.0734 29.7844 30.1834 29.8544 30.2934 29.9244C30.0334 30.0144 30.0134 30.0044 29.9634 29.7044Z" fill="#6B4E45"/>
<path d="M26.7433 21.8844V22.1144C26.8033 22.1944 26.9033 22.2844 26.9733 22.2944C27.5533 22.3244 28.1333 22.3144 28.7033 22.3144C28.7033 22.3144 29.4033 22.3444 29.7233 22.2644C29.8433 22.2344 29.9233 22.1044 30.0133 21.9744V21.7744C29.8833 21.7144 29.7533 21.6444 29.6233 21.6444C28.7433 21.6244 27.8733 21.6244 26.9933 21.6644C26.9033 21.6644 26.8033 21.7844 26.7333 21.9044L26.7433 21.8844Z" fill="#6B4E45"/>
<path d="M27.3833 20.7744C27.2933 20.7744 27.2033 20.9344 27.1133 21.0744V21.2344C27.2333 21.3144 27.3533 21.4044 27.4833 21.4244C27.7633 21.4644 28.0633 21.4244 28.3533 21.4244C28.6433 21.4244 28.9333 21.4444 29.2233 21.4244C29.3733 21.4144 29.5233 21.3644 29.6633 21.3244V21.1644C29.5433 20.9944 29.4233 20.7844 29.2933 20.7744C29.0333 20.7444 28.7833 20.7344 28.5233 20.7344C28.5333 20.7544 28.5433 20.7644 28.5433 20.7844C28.5433 20.8344 28.4733 20.8744 28.4233 20.9444C28.3733 20.8844 28.2933 20.8244 28.3033 20.8044C28.3133 20.7744 28.3333 20.7544 28.3533 20.7344C28.0333 20.7344 27.7033 20.7444 27.3833 20.7644V20.7744Z" fill="#6B4E45"/>
<path d="M50.8333 24.2544C50.7733 24.0244 50.7333 23.7944 50.7333 23.5544C50.7333 23.5944 50.7233 23.6244 50.7133 23.6744C50.5533 23.4144 50.4733 23.2844 50.3833 23.1344C50.5933 23.0944 50.6933 23.0744 50.7433 23.1344C50.7433 23.1044 50.7433 23.0744 50.7433 23.0444C50.4933 20.4144 49.8633 17.8644 48.8533 15.5844C48.4633 15.6044 48.2633 15.1044 48.5233 14.8344C45.7733 8.92445 40.8433 4.31444 34.9533 1.87444C34.9833 2.09444 34.9333 2.31444 34.9233 2.57444C33.4233 1.13444 31.3633 0.494444 29.1733 0.204444C28.3933 0.204444 27.6033 0.184444 26.8233 0.134444C26.6033 0.124444 26.3933 0.0744444 26.2033 0.00444444C25.3433 -0.00555556 24.4833 0.00444444 23.6733 0.00444444C23.6533 0.0844444 23.6333 0.144444 23.6133 0.204444C22.7933 -0.0755556 21.2033 0.0344445 20.6033 0.734444C20.5733 0.724444 20.5433 0.704444 20.5233 0.694444C20.5533 0.594444 20.5533 0.484444 20.6133 0.414444C20.0433 0.524444 19.4733 0.654444 18.9033 0.814444C18.2033 1.10444 17.6833 1.32444 17.1533 1.54444C17.1833 1.46444 17.2133 1.39444 17.2433 1.31444C16.5633 1.55444 15.8633 1.81444 15.2033 2.12444C15.2333 2.17444 15.2733 2.21444 15.3133 2.26444C15.1833 2.28444 15.0933 2.25444 15.0233 2.20444C13.5233 2.88444 12.1433 3.67444 10.8733 4.55444C10.9033 4.60444 10.8433 4.64444 10.8133 4.70444C10.7933 4.67444 10.7733 4.65444 10.7533 4.63444C10.4433 4.85444 10.1433 5.07444 9.84333 5.30444C9.79333 5.39444 9.74333 5.48444 9.68333 5.56444C9.72333 5.57444 9.76334 5.59444 9.80334 5.61444C9.79334 5.64444 9.77333 5.67444 9.76333 5.70444C9.72333 5.68444 9.67333 5.65444 9.63333 5.63444C9.40333 5.92444 9.09334 6.14444 8.69334 6.25444C8.21334 6.67444 7.74333 7.10444 7.31333 7.54444C7.31333 7.55444 7.33333 7.57444 7.34333 7.58444C7.29333 7.58444 7.26333 7.61444 7.23333 7.63444C7.23333 7.63444 7.23333 7.62444 7.25333 7.61444C7.18333 7.63444 7.12333 7.65444 7.07333 7.67444C7.07333 7.67444 7.07333 7.69444 7.07333 7.70444C7.07333 7.70444 7.07333 7.70444 7.06333 7.70444C7.06333 7.72444 7.08333 7.75444 7.09333 7.77444C7.12333 7.85444 7.15333 7.96445 7.21333 8.13445C7.06333 8.04445 6.98333 7.99444 6.91333 7.95444C6.30333 8.60444 5.73333 9.27444 5.21333 9.97444C5.39333 10.1344 5.40334 10.1744 5.22334 10.3944C5.14334 10.2744 5.07333 10.2144 5.07333 10.1544C4.24333 11.2644 3.51333 12.4344 2.88333 13.6544C2.95333 13.7344 3.01334 13.8044 3.08334 13.8744C3.05334 13.9044 3.02333 13.9344 2.99333 13.9544C2.93333 13.8944 2.88334 13.8244 2.83334 13.7644C2.70334 14.0044 2.59334 14.2544 2.47334 14.4944C2.53334 14.5444 2.60333 14.5944 2.67333 14.6544C2.62333 14.8544 2.57334 15.0544 2.51334 15.3244C1.38334 15.5444 1.12333 18.5944 0.683334 19.6544C0.723334 19.7044 0.763335 19.7644 0.793335 19.8144C0.753335 19.8144 0.703333 19.8144 0.643333 19.8144C0.383334 21.3444 -0.116669 22.9944 0.133331 24.5144C0.0933314 24.5844 0.0533341 24.6444 0.00333413 24.7044C0.0333341 26.4244 -0.146669 28.3644 0.453331 29.9744C0.403331 30.0044 0.363336 30.0144 0.333336 30.0344C0.463336 30.8644 0.643333 31.6844 0.853333 32.5044C1.07333 32.7944 1.21334 33.1444 1.26334 33.5144C1.28334 33.5144 1.30333 33.5144 1.32333 33.5144C1.77333 36.5444 3.66333 39.3444 5.49333 41.8644C5.58333 41.8444 5.67333 41.8344 5.77333 41.8344C5.89333 42.0344 6.33333 42.3144 6.04333 42.5344C7.83333 44.6744 10.2133 46.6544 12.8933 48.1744C13.2233 48.2844 13.5533 48.4244 13.8633 48.5944C14.0133 48.6744 14.1433 48.7844 14.2633 48.9044C15.5633 49.5444 16.9133 50.0844 18.2833 50.4844C18.4933 50.3244 18.6733 50.3044 18.9133 50.3544C19.9733 51.4344 25.9133 52.0144 26.8833 51.1044C26.9133 51.3144 26.9733 51.3544 27.0233 51.4744C29.0033 51.3444 30.9333 50.9744 32.7933 50.3944C33.0933 50.2544 33.4033 50.1444 33.7233 50.0444C34.6333 49.4744 35.5733 48.9844 36.6033 48.8644C37.1933 48.5744 37.7733 48.2644 38.3333 47.9244C38.3233 47.9244 38.3133 47.9144 38.3033 47.9044C38.4033 47.8144 38.4033 47.7644 38.4733 47.8344C38.7833 47.6444 39.0833 47.4544 39.3833 47.2544C39.4933 46.8944 39.5033 46.4744 39.8133 46.9644C40.7433 46.3244 41.6233 45.6244 42.4633 44.8744C42.3133 44.8244 42.2333 44.7144 42.2233 44.5244C42.4333 44.4444 42.5933 44.4744 42.7333 44.6244C44.7633 42.7344 46.5133 40.5144 47.8533 38.0344C47.5633 37.5344 47.8533 37.5744 48.1633 37.3544C48.1633 37.3844 48.1633 37.4244 48.1633 37.4544C48.1933 37.3944 48.2233 37.3344 48.2533 37.2744C48.2533 37.2744 48.2533 37.2044 48.2533 37.1744C48.2633 37.1744 48.2833 37.1744 48.3033 37.1744C50.2533 33.4144 51.1133 28.7644 50.8733 24.2344L50.8333 24.2544ZM0.183334 23.0144C0.283334 22.9844 0.373333 22.9444 0.463333 22.9044C0.473333 22.9344 0.493334 22.9644 0.503334 23.0044C0.383334 23.0344 0.243334 23.1944 0.183334 23.0144ZM0.563332 24.0044C0.563332 24.0044 0.46333 23.9744 0.41333 23.9644C0.43333 23.8344 0.51333 23.9044 0.59333 23.9244C0.59333 23.9544 0.573332 23.9744 0.563332 24.0044ZM49.8233 20.3144C49.8233 20.3144 49.7833 20.3544 49.7533 20.3744C49.6633 20.2744 49.5833 20.1844 49.4933 20.0844C49.6633 20.0944 49.7533 20.1844 49.8233 20.3044V20.3144ZM46.4733 11.8644C46.4733 11.8644 46.5233 11.8644 46.5433 11.8644C46.5433 11.9344 46.5433 12.0144 46.5533 12.0844C46.5233 12.0844 46.4933 12.0844 46.4633 12.0844V11.8644H46.4733ZM38.5133 4.19444C38.5733 4.21444 38.6333 4.22444 38.6933 4.24444C38.6933 4.27444 38.6933 4.30444 38.6833 4.33444H38.5133C38.5133 4.33444 38.5133 4.24444 38.5133 4.20444V4.19444ZM36.8733 3.31444C36.9333 3.31444 36.9933 3.39444 37.0533 3.44444C37.0033 3.50444 36.9533 3.56444 36.8833 3.66444C36.6933 3.52444 36.6633 3.38444 36.8833 3.31444H36.8733ZM32.6733 1.36444C32.6033 1.28444 32.5233 1.20444 32.4333 1.10444C32.6533 1.06444 32.6533 1.22444 32.6733 1.36444ZM31.6033 0.834444C31.6033 0.834444 31.6633 0.894444 31.6833 0.924444C31.5833 0.984444 31.5533 1.07444 31.4633 0.934444C31.5233 0.894444 31.5533 0.854444 31.6033 0.834444ZM31.0533 1.75444C31.2533 1.87444 31.0333 2.01444 30.9033 1.80444C30.9833 1.77444 31.0233 1.74444 31.0533 1.75444ZM26.4433 0.664444C26.6033 0.764444 26.5833 0.854444 26.5133 0.954444C26.3333 1.01444 26.3133 0.764444 26.4433 0.664444ZM25.0333 0.904444C24.8533 0.917778 24.7267 0.821111 24.6533 0.614444C24.9533 0.524444 24.9733 0.534444 25.0333 0.904444ZM19.5033 1.03444V1.41444C19.0833 1.36444 19.1033 0.884444 19.5033 1.03444ZM13.1133 4.14444C13.1133 4.14444 13.1933 4.24444 13.2233 4.30444C13.0933 4.40444 13.0633 4.32444 12.9633 4.21444C13.0333 4.18444 13.0933 4.13444 13.1133 4.15444V4.14444ZM10.5433 6.06444C10.6133 6.08444 10.6833 6.10444 10.7433 6.12444C10.7333 6.15444 10.7133 6.19444 10.6933 6.22444C10.6333 6.17444 10.4533 6.14444 10.5333 6.05444L10.5433 6.06444ZM1.38333 18.4544C1.38333 18.4544 1.44333 18.4544 1.48333 18.4644C1.48333 18.5944 1.49333 18.7344 1.50333 18.8944C1.43333 18.8944 1.37334 18.8844 1.30334 18.8744C1.33334 18.7244 1.36333 18.5844 1.38333 18.4544ZM0.933334 19.4044C1.05333 19.4744 1.03333 19.5044 0.963333 19.6344C0.863333 19.5344 0.843334 19.5044 0.933334 19.4044ZM3.82333 38.1344C3.68333 38.0644 3.49334 38.0544 3.62334 37.7644C3.78334 37.7844 3.93334 37.8144 4.15334 37.8444C4.01334 37.9744 3.92334 38.0444 3.83334 38.1344H3.82333ZM4.75333 39.9944C4.58333 39.9044 4.58333 39.8344 4.75333 39.7444V39.9944ZM8.67333 44.6944C8.51333 44.6944 8.50333 44.6044 8.45333 44.4744C8.52333 44.4444 8.59334 44.4244 8.69334 44.3844C8.68334 44.5144 8.67333 44.5944 8.66333 44.6944H8.67333ZM13.3133 48.1144C13.2533 48.0944 13.1433 48.1144 13.1633 48.0244H13.3133C13.3133 48.0244 13.3133 48.0844 13.3133 48.1144ZM30.5933 49.7744C30.5733 49.3244 30.8033 49.5744 30.9233 49.7844C30.8233 49.7844 30.7233 49.7844 30.5933 49.7744ZM48.6833 35.6544C48.6633 35.5844 48.6333 35.5144 48.6133 35.4444C48.6333 35.4444 48.6633 35.4444 48.6833 35.4344C48.6933 35.5044 48.7133 35.5744 48.7233 35.6344C48.7133 35.6344 48.6933 35.6444 48.6833 35.6544ZM48.7833 32.3644C48.8033 32.2444 48.8133 32.1244 48.8333 32.0144C48.7733 32.4444 48.6633 32.8144 48.4333 33.1444C47.7533 35.3744 46.7733 37.5044 45.5233 39.4444C45.4733 39.6144 45.4133 39.7844 45.3333 39.9544C45.1533 40.3544 44.8433 40.6844 44.6533 41.0844C44.4933 41.4344 44.0533 41.7844 43.6533 41.9544C41.6533 44.2944 39.1733 46.1944 36.2733 47.4344C35.9933 47.7344 35.6033 47.9344 35.1933 48.0344V48.0944C35.0633 48.1244 34.9233 48.1544 34.7733 48.1844C34.7733 48.1544 34.7733 48.1244 34.7733 48.0844H34.7433C34.5833 48.1844 34.4033 48.2644 34.2133 48.3144C34.1133 48.3244 34.0133 48.3444 33.9133 48.3544C31.0233 49.4244 27.9333 49.9844 24.8233 49.9344C24.7433 50.0544 24.6033 50.1144 24.4733 50.0944C24.2733 50.1644 24.0433 50.1944 23.7833 50.1944C23.2733 50.1944 22.8533 50.0444 22.5433 49.7944C18.9333 49.4044 15.3533 48.1944 12.0733 46.0544C12.0633 46.0544 12.0433 46.0544 12.0333 46.0444C11.9333 46.0144 11.6133 45.8944 11.4433 45.7944C11.3033 45.7044 11.0833 45.5444 10.9733 45.4244C10.9233 45.3744 10.8833 45.3244 10.8433 45.2744C10.7633 45.2944 10.6733 45.3044 10.5833 45.2744C10.5333 45.3144 10.4733 45.3544 10.4133 45.4044C10.3133 45.0944 10.0333 44.8744 10.0333 44.5844C7.25333 42.4244 5.01333 39.6044 3.45333 36.4944C3.19333 36.2044 3.03333 35.8344 2.96333 35.4444C2.21333 33.7344 1.67333 31.9544 1.35333 30.1644C1.11333 29.4344 0.953331 28.6844 0.883331 27.9144C0.853331 27.6344 0.903334 27.3744 1.00333 27.1344C0.903334 25.2444 1.01333 23.3444 1.35333 21.4844C1.25333 21.1344 1.25334 20.7844 1.37334 20.4544C1.48334 20.1844 1.59334 19.9644 1.72334 19.7644C1.98334 18.7544 2.29333 17.7544 2.68333 16.7844C2.71333 16.5944 2.76334 16.4044 2.83334 16.2244C2.83334 16.1944 2.83333 16.1644 2.84333 16.1244C2.84333 16.1244 2.86334 16.1344 2.87334 16.1444C2.93334 16.0244 3.00334 15.9044 3.08334 15.8044C4.49334 12.1544 7.75334 9.29444 10.1933 6.46444C10.4033 6.35444 10.6033 6.27444 10.8033 6.37444C12.3833 5.21444 14.0333 4.28444 15.7333 3.55444C16.3633 2.98444 17.1933 2.60444 17.9833 2.52444C18.2033 2.50444 18.4433 2.49444 18.6933 2.49444C21.9733 1.57444 25.3933 1.39444 28.8533 1.89444C28.9933 1.87444 29.1333 1.85444 29.2733 1.83444C29.3033 1.83444 29.3333 1.83444 29.3633 1.84444C29.3933 1.67444 29.3633 1.64444 29.1233 1.53444C29.3933 1.26444 29.5433 1.63444 29.6433 1.88444C29.7033 1.88444 29.7733 1.90444 29.8333 1.91444C30.0633 1.98444 30.2733 2.08444 30.4733 2.17444C33.3833 2.80444 36.1733 3.94444 38.6833 5.53444C38.8833 5.61444 39.0933 5.69444 39.2933 5.79444C39.5733 5.93444 39.8233 6.10444 40.0833 6.27444C40.5933 6.59444 41.0133 6.97444 41.3033 7.40444H41.6533C41.5533 7.50444 41.4633 7.52444 41.3833 7.51444C42.7433 8.54444 43.9233 9.71444 44.9433 10.9944C45.1833 11.1744 45.3733 11.3844 45.5633 11.6344C45.8433 11.9844 46.0233 12.3644 46.2433 12.7544C46.3033 12.8544 46.3433 12.9644 46.3833 13.0744C48.2433 16.1344 49.2733 19.6444 49.5533 23.2344C49.6233 23.7044 49.6633 24.1844 49.6933 24.6644C49.6933 24.8444 49.6833 25.0244 49.6333 25.1944C49.6333 27.1644 49.4133 29.1344 48.9933 31.0544C48.9533 31.4744 48.8633 31.9044 48.8033 32.3344L48.7833 32.3644ZM49.8933 31.5944C49.8933 31.5944 49.9733 31.6244 50.0133 31.6344C50.0033 31.7444 49.9833 31.8544 49.9733 31.9644C49.8733 31.9444 49.7833 31.9344 49.6033 31.8944C49.7333 31.7544 49.8033 31.6744 49.8833 31.5844L49.8933 31.5944ZM49.8033 32.4544C49.8033 32.4544 49.7733 32.4044 49.7633 32.3844C49.8433 32.3344 49.9233 32.2844 50.0033 32.2344C50.0133 32.2544 50.0333 32.2844 50.0433 32.3044C49.9633 32.3544 49.8833 32.4044 49.8033 32.4544ZM49.8033 19.4144C49.8033 19.4144 49.8033 19.3444 49.8033 19.3144C49.8833 19.2944 49.9533 19.2744 50.0333 19.2544C50.1633 19.4844 49.9533 19.5944 49.8133 19.4144H49.8033Z" fill="#6B4E45"/>
</svg>
