<svg width="1144" height="307" viewBox="0 0 1144 307" fill="none" xmlns="http://www.w3.org/2000/svg">
<path d="M1.90735e-05 123.5L108.917 191.646L362.5 258.5C362.5 258.5 499.5 275 606.133 288.6C612.84 289.455 623.417 287.583 623.417 287.583H639.683L655.95 286.566H672.217L688.483 285.55H709.833C712.172 285.55 715.669 285.763 717.692 284.513C719.929 283.13 721.667 278.799 722.786 276.4C725.358 270.869 727.127 253.443 726.923 246.916C727.117 244.588 727.188 242.077 726.923 239.8C725.449 233.334 723.121 229.958 725.988 222.516C727.3 219.1 730.929 215.501 733.176 212.35L745.132 193.033C747.43 188.977 750.937 184.574 748.223 179.877C744.929 174.154 738.666 176.156 733.217 175.577C726.486 174.855 717.794 171.551 711.867 168.318L695.6 157.511C686.999 152.183 681.875 150.841 675.165 142.19C665.263 129.43 660.342 113.316 657.007 108.762C650.917 100.445 641.534 110.246 639.236 100.496C638.179 95.9923 642.388 91.4986 645.793 89.1806C651.853 85.0631 655.726 86.883 662.05 86.1001C665.639 85.6528 667.093 84.6361 670.183 83.8533L675.256 83.1009C680.441 82.1656 680.391 79.4308 685.433 79.4409C691.848 79.4511 689.581 83.9549 690.984 87.1981C692.265 90.1566 695.549 91.8036 698.65 91.9968L717.967 89.5873C728.692 87.8183 753.499 81.9826 762.68 77.2348C768.119 74.4186 767.539 71.8058 771.901 69.5793C777.411 66.7733 790.729 68.6846 794.196 63.4894C795.294 61.8424 795.416 57.1556 795.996 54.7664L800.662 38.4998C801.354 36.3444 802.889 32.6031 802.431 30.4173C801.862 27.7129 799.585 26.7979 798.283 24.8256C796.748 22.4873 795.498 16.9668 795.782 14.1913C795.996 12.0461 796.535 5.75294 797.45 4.27877C800.184 -0.184393 809.639 -2.13639 815.17 3.31294C817.651 5.75294 821.372 13.6524 821.036 17.1498C820.843 19.1831 819.532 21.4299 818.617 23.2498C833.856 31.5051 833.694 49.8763 833.867 64.9331L834.7 76.0758C834.314 80.051 832.26 80.2848 831.894 85.2766C831.691 88.0216 831.61 93.9691 835.961 92.7695C840.81 91.4275 849.889 78.709 859.049 82.9688C864.356 85.4291 861.337 97.4156 861.317 102.55C870.517 100.425 867.305 104.278 877.583 107.633C875.418 117.251 878.417 114.526 886.144 121.012L896.991 131.728L906.965 140.207C913.594 147.232 914.875 158.416 916.471 167.616L923.232 198.116C923.038 201.024 922.418 202.529 921.808 205.233C921.015 208.741 921.147 210.133 919.267 213.366L916.217 208.283C914.244 218.724 919.633 216.732 921.778 225.566L923.608 241.833L927.4 264.2L951.8 256.066L965.016 253.21L990.433 262.116L1001.62 265.288L1011.78 261.607L1037.2 252.223L1045.33 253.016V205.233L1046.35 188.966V160.5L1047.37 143.216L1048.38 104.583L1045.33 106.616L1043.3 101.533L1039.23 106.616V104.583L1035.17 106.616L1041.27 90.3498C1030.31 98.3103 1035.58 98.9609 1028.05 105.6L1033.13 90.3498L1031.1 92.3831H1030.08V87.2998L1025 91.3664L1021.95 89.3331L1017.88 93.3998L1012.8 94.4164L1010.77 92.3831C1008.96 95.4128 1009.16 95.7076 1005.68 96.4498L1003.65 100.516L999.583 99.4998L1003.65 93.3998H999.583L1010.77 86.2831H1008.73V85.2664L1009.75 82.2164L1016.87 79.1664L1014.83 75.0998L1006.7 76.1164L1007.72 71.0331C1003.74 73.3714 1003.13 74.5203 998.567 73.0664L995.516 76.1164L996.533 73.0664L990.433 75.0998L995.516 68.9998L992.467 67.9831L1004.67 62.8998L1002.63 60.8664H1021.95L1020.93 56.7998H1026.02C1021.91 52.1841 1019.34 53.2923 1013.82 54.7664L1011.78 53.7498L1010.77 48.6664C1015.61 47.2939 1019.14 47.2939 1023.98 48.6664L1022.97 42.5664L1018.9 43.5831V41.5498L1014.83 42.5664L1015.85 38.4998H1009.75L1002.63 31.3831C1015.49 28.2924 1025.43 35.8666 1036.18 41.5498C1034.46 38.3371 1033.44 37.7881 1035.17 34.4331C1031.21 29.8378 1030.25 22.0196 1030.08 16.1331C1036.09 20.6471 1039.65 27.4994 1042.28 34.4331C1047.34 31.5153 1048.32 36.2936 1051.59 32.1253C1056.55 25.7813 1052.86 15.3808 1063.73 12.0664V26.2998L1065.2 33.4164L1066.68 44.5998C1071.09 31.4949 1077.05 21.9078 1090.07 16.1331C1088.94 21.5621 1085.69 29.4514 1080.92 32.3998L1083.97 36.4664C1079.7 37.8389 1079.36 38.9776 1076.85 42.5664V46.6331C1086.85 41.6209 1094.36 37.9101 1105.32 42.5664V44.5998L1102.27 47.6498L1099.22 46.6331L1087.02 49.6831L1091.08 50.6998L1088.03 53.7498C1096.1 52.6823 1102.65 50.9946 1109.38 56.7998L1101.25 55.7831L1097.18 56.7998L1098.2 58.8331L1092.1 57.8164L1093.12 60.8664L1086 61.8831L1088.03 63.9164L1092.1 62.8998C1096.25 66.8851 1103.68 67.7899 1109.38 68.9998L1113.45 74.0831L1112.43 78.1498L1100.23 74.0831L1101.25 77.1331L1097.18 75.0998V78.1498L1093.12 75.0998L1102.27 86.2831L1097.18 87.2998L1102.67 92.9829L1106.33 106.616L1101.25 105.6L1099.22 99.4998L1097.18 101.533L1090.07 92.3831L1087.02 93.3998L1083.97 89.3331H1079.9L1077.87 90.3498L1078.88 94.4164L1073.8 92.3831L1072.78 96.4498L1069.73 95.4331L1071.77 104.583L1068.72 105.6L1066.68 102.55V106.616L1060.58 101.533V105.6L1054.48 104.583V200.15L1055.5 214.383V244.883C1055.54 248.238 1055.76 254.003 1058.12 256.565C1060.14 258.74 1075.08 263.478 1077.83 262.634C1079.93 261.994 1080.65 260.672 1081.93 259.116L1078.88 260.133H1071.77L1073.8 252C1080.49 251.857 1083.2 251.868 1088.03 246.916L1080.92 247.933L1079.9 244.883L1087.02 241.833C1081.56 239.922 1078.16 238.681 1073.8 234.716C1082.03 233.913 1084.77 235.672 1092.1 238.783L1088.03 226.583C1095.75 229.145 1091.82 233.222 1101.25 235.733L1103.28 223.533H1105.32L1107.35 238.783C1112.51 233.446 1111.84 229.287 1119.55 225.566L1115.48 240.816C1121.3 237.634 1124.38 235.977 1130.73 238.783L1122.6 240.816V243.866H1131.75V245.9L1121.58 247.933V249.966C1129.55 251.878 1133.79 249.031 1141.92 247.933C1143.9 259.025 1142.93 293.48 1142.93 306.9H0L1.90735e-05 123.5ZM1052.45 34.4331H1051.43L1052.45 35.4498V34.4331ZM1011.78 35.4498H1010.77L1011.78 36.4664V35.4498ZM1099.22 45.6164H1098.2L1099.22 46.6331V45.6164ZM1076.85 46.6331H1075.83L1076.85 47.6498V46.6331ZM1094.13 46.6331H1093.12L1094.13 47.6498V46.6331ZM1014.83 51.7164H1013.82L1014.83 52.7331V51.7164ZM1003.65 63.9164H1002.63L1003.65 64.9331V63.9164ZM769.817 78.1498C763.676 78.7903 754.241 82.9484 747.45 84.8394C733.938 88.6011 710.352 93.7861 696.617 94.4164C698.314 100.872 702.889 116.936 706.417 121.866C716.614 136.161 734.792 134.493 746.25 122.71C753.692 115.055 750.073 110.988 754.668 103.658C758.44 97.6596 762.985 97.0293 766.106 93.1863C769.715 88.7638 769.796 83.5279 769.817 78.1498ZM791.167 80.1831C783.521 79.6239 782.505 81.3116 779.983 88.3164C784.904 86.4051 787.791 84.2294 791.167 80.1831ZM778.967 82.2164H775.917L776.933 88.3164L778.967 82.2164ZM1096.17 86.2831H1095.15L1096.17 87.2998V86.2831ZM1006.7 86.2831H1007.72L1006.7 87.2998V86.2831ZM1077.87 89.3331H1076.85L1077.87 90.3498V89.3331ZM1066.68 101.533H1065.67L1066.68 102.55V101.533ZM861.317 102.55H860.3L861.317 103.566V102.55ZM675.267 128.983C673.284 120.179 672.684 111.446 662.05 109.666C665.222 117.027 668.74 124.073 675.267 128.983ZM667.133 122.883H666.117L667.133 123.9V122.883ZM668.15 123.9C667.631 127.783 669.858 130.874 671.912 134.066C676.426 141.092 682.322 148.737 690.517 151.35L677.727 133.578L668.15 123.9ZM903.925 148.3C903.091 151.553 904.067 154.135 903.925 157.45C903.478 162.401 901.577 168.938 902.319 173.716L905.399 184.9C905.704 187.818 904.688 189.343 904.749 192.016C904.86 197.466 908.358 205.497 912.15 209.3C914.427 192.047 912.17 192.982 912.15 178.8C912.13 167.708 910.859 157.429 903.925 148.3ZM744.4 173.716C741.025 161.954 736.5 166.254 727.117 166.427C721.901 166.254 718.17 164.505 712.883 166.427C727.462 172.873 728.296 173.716 744.4 173.716ZM860.3 175.75L841.929 187.319L839.967 195.066C835.341 194.121 833.409 195.382 830.817 191L820.65 192.525L806.417 186.679L789.133 184.9L785.372 192.189C784.731 195.046 786.632 203.057 787.313 206.25C789.682 217.382 795.213 231.29 795.233 241.833V253.016L797.267 282.5H824.717L845.05 281.483C849.157 281.473 853.559 281.615 857.25 279.521C869.582 272.496 877.878 247.354 877.573 233.7L876.567 217.433C876.556 212.289 875.591 197.374 873.09 193.318C870.894 189.729 866.817 190.38 863.635 187.95C859.853 185.052 860.31 180.01 860.3 175.75ZM765.75 199.133C757.017 205.111 741.645 222.811 737.751 232.683C735.504 238.387 735.26 241.945 735.25 247.933L736.256 269.283C736.277 271.662 737.395 274.082 736.256 276.4C735.047 279.429 729.75 283.252 727.117 285.55C736.338 284.33 742.367 284.543 751.517 284.533L772.867 283.516C775.683 283.516 779.404 283.73 781.905 282.327C788.472 278.636 787.354 266.406 786.337 260.133C784.345 247.984 783.186 248.767 780.014 238.783L775.835 222.516L765.75 199.133ZM893.85 212.35L894.704 234.716L885.981 249.966L872.5 281.483C886.327 281.483 893.342 277.569 906.05 273.035C909.303 271.876 916.145 270.269 917.64 266.975C919.256 263.417 917.02 254.674 915.861 250.983C912.648 240.725 900.997 220.026 893.85 212.35ZM1093.12 238.783H1092.1L1093.12 239.8V238.783Z" fill="#6D4F37"/>
</svg>
